<svg width="79" height="15" viewBox="0 0 79 15" fill="none" xmlns="http://www.w3.org/2000/svg">
<path d="M22.5519 0.499766L20.761 4.29177L16.7635 4.89977C16.5503 4.9211 16.3717 5.02777 16.2278 5.21977C16.0839 5.41177 16.0146 5.63043 16.0199 5.87577C16.0253 6.1211 16.1132 6.3291 16.2838 6.49977L19.162 9.42777L18.4904 13.6358C18.4478 13.8704 18.4904 14.0811 18.6183 14.2678C18.7462 14.4544 18.9195 14.5771 19.138 14.6358C19.3565 14.6944 19.5617 14.6704 19.7536 14.5638L23.3514 12.6918L26.9491 14.5638C27.1623 14.6704 27.3782 14.6944 27.5967 14.6358C27.8152 14.5771 27.9831 14.4544 28.1004 14.2678C28.2177 14.0811 28.255 13.8704 28.2123 13.6358L27.5567 9.42777L30.4189 6.49977C30.5895 6.3291 30.6775 6.12643 30.6828 5.89177C30.6881 5.6571 30.6215 5.44377 30.4829 5.25177C30.3443 5.05977 30.1684 4.94243 29.9552 4.89977L25.9577 4.29177L24.1509 0.499766C24.0443 0.286433 23.8844 0.139766 23.6712 0.0597658C23.458 -0.0202342 23.2448 -0.0202342 23.0316 0.0597658C22.8184 0.139766 22.6585 0.286433 22.5519 0.499766Z" fill="#FFBF48"/>
<path d="M54.5819 0.499766L52.791 4.29177L48.7935 4.89977C48.5803 4.9211 48.4017 5.02777 48.2578 5.21977C48.1139 5.41177 48.0446 5.63043 48.05 5.87577C48.0553 6.1211 48.1432 6.3291 48.3138 6.49977L51.192 9.42777L50.5204 13.6358C50.4778 13.8704 50.5204 14.0811 50.6483 14.2678C50.7763 14.4544 50.9495 14.5771 51.168 14.6358C51.3866 14.6944 51.5918 14.6704 51.7836 14.5638L55.3814 12.6918L58.9791 14.5638C59.1923 14.6704 59.4082 14.6944 59.6267 14.6358C59.8453 14.5771 60.0132 14.4544 60.1304 14.2678C60.2477 14.0811 60.285 13.8704 60.2424 13.6358L59.5868 9.42777L62.449 6.49977C62.6195 6.3291 62.7075 6.12643 62.7128 5.89177C62.7181 5.6571 62.6515 5.44377 62.5129 5.25177C62.3744 5.05977 62.1985 4.94243 61.9853 4.89977L57.9878 4.29177L56.1809 0.499766C56.0743 0.286433 55.9144 0.139766 55.7012 0.0597659C55.488 -0.0202341 55.2748 -0.0202341 55.0616 0.0597659C54.8484 0.139766 54.6885 0.286433 54.5819 0.499766Z" fill="#FFBF48"/>
<path d="M70.5963 0.499766L68.8043 4.29177L64.8043 4.89977C64.591 4.9211 64.4123 5.02777 64.2683 5.21977C64.1243 5.41177 64.055 5.63043 64.0603 5.87577C64.0657 6.1211 64.1537 6.3291 64.3243 6.49977L67.2043 9.42777L66.5323 13.6358C66.4897 13.8704 66.5323 14.0811 66.6603 14.2678C66.7883 14.4544 66.9617 14.5771 67.1803 14.6358C67.399 14.6944 67.6043 14.6704 67.7963 14.5638L71.3963 12.6918L74.9963 14.5638C75.2097 14.6704 75.4257 14.6944 75.6443 14.6358C75.863 14.5771 76.031 14.4544 76.1483 14.2678C76.2657 14.0811 76.303 13.8704 76.2603 13.6358L75.6043 9.42777L78.4683 6.49977C78.639 6.3291 78.727 6.12643 78.7323 5.89177C78.7377 5.6571 78.671 5.44377 78.5323 5.25177C78.3937 5.05977 78.2177 4.94243 78.0043 4.89977L74.0043 4.29177L72.1963 0.499766C72.0897 0.286433 71.9297 0.139766 71.7163 0.0597659C71.503 -0.0202341 71.2897 -0.0202341 71.0763 0.0597659C70.863 0.139766 70.703 0.286433 70.5963 0.499766Z" fill="#FFBF48"/>
<path d="M6.53629 0.499766L4.74429 4.29177L0.744286 4.89977C0.530952 4.9211 0.352286 5.02777 0.208286 5.21977C0.0642857 5.41177 -0.00504762 5.63043 0.000285714 5.87577C0.00561905 6.1211 0.093619 6.3291 0.264286 6.49977L3.14429 9.42777L2.47229 13.6358C2.42962 13.8704 2.47229 14.0811 2.60029 14.2678C2.72829 14.4544 2.90162 14.5771 3.12029 14.6358C3.33895 14.6944 3.54429 14.6704 3.73629 14.5638L7.33629 12.6918L10.9363 14.5638C11.1496 14.6704 11.3656 14.6944 11.5843 14.6358C11.803 14.5771 11.971 14.4544 12.0883 14.2678C12.2056 14.0811 12.243 13.8704 12.2003 13.6358L11.5443 9.42777L14.4083 6.49977C14.579 6.3291 14.667 6.12643 14.6723 5.89177C14.6776 5.6571 14.611 5.44377 14.4723 5.25177C14.3336 5.05977 14.1576 4.94243 13.9443 4.89977L9.94429 4.29177L8.13629 0.499766C8.02962 0.286433 7.86962 0.139766 7.65629 0.0597658C7.44295 -0.0202342 7.22962 -0.0202342 7.01629 0.0597658C6.80295 0.139766 6.64295 0.286433 6.53629 0.499766Z" fill="#FFBF48"/>
<path d="M38.5663 0.499766L36.7743 4.29177L32.7743 4.89977C32.561 4.9211 32.3823 5.02777 32.2383 5.21977C32.0943 5.41177 32.025 5.63043 32.0303 5.87577C32.0356 6.1211 32.1236 6.3291 32.2943 6.49977L35.1743 9.42777L34.5023 13.6358C34.4596 13.8704 34.5023 14.0811 34.6303 14.2678C34.7583 14.4544 34.9316 14.5771 35.1503 14.6358C35.369 14.6944 35.5743 14.6704 35.7663 14.5638L39.3663 12.6918L42.9663 14.5638C43.1796 14.6704 43.3956 14.6944 43.6143 14.6358C43.833 14.5771 44.001 14.4544 44.1183 14.2678C44.2356 14.0811 44.273 13.8704 44.2303 13.6358L43.5743 9.42777L46.4383 6.49977C46.609 6.3291 46.697 6.12643 46.7023 5.89177C46.7076 5.6571 46.641 5.44377 46.5023 5.25177C46.3636 5.05977 46.1876 4.94243 45.9743 4.89977L41.9743 4.29177L40.1663 0.499766C40.0596 0.286433 39.8996 0.139766 39.6863 0.0597659C39.473 -0.0202341 39.2596 -0.0202341 39.0463 0.0597659C38.833 0.139766 38.673 0.286433 38.5663 0.499766Z" fill="#FFBF48"/>
</svg>
