<svg width="51" height="51" viewBox="0 0 51 51" fill="none" xmlns="http://www.w3.org/2000/svg">
<path d="M29.1144 39.6933C28.8833 39.6933 28.6812 39.6355 28.5079 39.5199C28.3346 39.4044 28.2479 39.2311 28.2479 38.9999L28.0746 36.3999C28.0746 36.1688 28.1613 35.9666 28.3346 35.7933C28.5079 35.6199 28.7389 35.5333 29.0278 35.5333C29.3166 35.5333 29.5765 35.3888 29.8076 35.0999C30.0387 34.8111 30.1253 34.4644 30.0676 34.0599C30.0098 33.6555 29.8076 33.3377 29.461 33.1066L28.7678 32.9333C28.5367 32.9333 28.3346 32.8755 28.1613 32.7599C27.988 32.6444 27.9013 32.4711 27.9013 32.2399L27.728 29.6399C27.728 29.0622 27.9591 28.7733 28.4212 28.7733L30.5008 28.5999C30.6163 27.9066 30.9341 27.3577 31.454 26.9533C31.9739 26.5488 32.5515 26.3466 33.187 26.3466C33.8224 26.3466 34.4001 26.5199 34.92 26.8666C35.4399 27.2133 35.8153 27.6755 36.0464 28.2533L38.126 28.0799C38.5881 28.0799 38.877 28.3111 38.9925 28.7733L39.3391 36.3999C39.3391 36.8622 39.108 37.1222 38.6459 37.1799C38.1838 37.2377 37.8949 37.0355 37.7794 36.5733L37.4328 29.6399L35.5265 29.8133C35.2954 29.8133 35.0933 29.7555 34.92 29.6399C34.7467 29.5244 34.6311 29.3222 34.5734 29.0333C34.5156 28.7444 34.3712 28.4844 34.1401 28.2533C33.909 28.0222 33.6202 27.9066 33.2736 27.9066C32.927 27.9066 32.6382 28.0511 32.4071 28.3399C32.176 28.6288 32.0605 28.9177 32.0605 29.2066C32.0605 29.4955 31.9739 29.7266 31.8006 29.8999C31.6273 30.0733 31.4828 30.1599 31.3673 30.1599H29.461V31.3733H29.6343C29.7498 31.3733 29.9809 31.4888 30.3275 31.7199C31.1362 32.1822 31.5984 32.8755 31.7139 33.7999C31.8294 34.7244 31.5984 35.4177 31.0207 35.8799C30.6741 36.3422 30.212 36.6311 29.6343 36.7466L29.8076 37.9599L36.2197 37.6133C36.6818 37.6133 36.9418 37.8444 36.9996 38.3066C37.0573 38.7688 36.8551 39.0577 36.393 39.1733L29.1144 39.6933ZM41.7653 47.6666C41.5342 47.6666 41.3032 47.5511 41.0721 47.3199L38.9925 45.2399C38.5304 44.6622 38.1838 44.0844 37.9527 43.5066C37.7216 42.9288 37.6061 42.2933 37.6061 41.5999V41.0799L35.0066 38.3066C34.0823 37.2666 33.8513 35.9955 34.3134 34.4933C34.3134 34.2622 34.4867 33.9733 34.8333 33.6266C34.9488 33.3955 35.1221 33.2222 35.3532 33.1066C35.5843 32.9911 35.7865 32.9333 35.9598 32.9333C36.1331 32.9333 36.2775 32.9911 36.393 33.1066L41.0721 38.1333C41.1876 38.2488 41.2454 38.4222 41.2454 38.6533C41.2454 38.8844 41.1876 39.0866 41.0721 39.2599C40.9566 39.4333 40.7833 39.5199 40.5522 39.5199C40.3211 39.5199 40.1478 39.4044 40.0323 39.1733L35.8731 34.8399V35.0133C35.5265 35.9377 35.6998 36.6888 36.393 37.2666L39.1658 40.2133C39.2813 40.4444 39.3391 40.6755 39.3391 40.9066V41.5999C39.3391 41.9466 39.3969 42.3511 39.5124 42.8133C39.6279 43.2755 39.859 43.7377 40.2056 44.1999L41.7653 45.7599L45.9245 41.9466L44.0182 35.5333C43.9027 34.9555 43.6138 34.4355 43.1517 33.9733C42.4585 33.2799 41.7653 32.9333 41.0721 32.9333L38.2993 32.2399C38.0682 32.2399 37.8949 32.1533 37.7794 31.9799C37.6639 31.8066 37.635 31.6044 37.6928 31.3733C37.7505 31.1422 37.8661 30.9688 38.0394 30.8533C38.2127 30.7377 38.4148 30.6799 38.6459 30.6799L41.4187 31.3733C42.4585 31.4888 43.4405 32.0088 44.3648 32.9333C44.9425 33.5111 45.3468 34.2044 45.5779 35.0133L47.6575 41.9466C47.773 42.2933 47.7153 42.5244 47.4842 42.6399L42.4585 47.4933L41.7653 47.6666ZM43.4983 50.4399C43.3828 50.4399 43.2095 50.3822 42.9784 50.2666L40.7255 47.8399C40.4944 47.6088 40.3789 47.4066 40.3789 47.2333C40.3789 47.0599 40.4944 46.8577 40.7255 46.6266L46.791 40.9066C46.9065 40.7911 47.0798 40.7333 47.3109 40.7333C47.542 40.7333 47.7153 40.7911 47.8308 40.9066L50.257 43.5066C50.3725 43.6222 50.4303 43.7955 50.4303 44.0266C50.4303 44.2577 50.3725 44.4311 50.257 44.5466L44.1915 50.2666C43.9604 50.3822 43.7294 50.4399 43.4983 50.4399ZM42.2852 47.3199L43.4983 48.7066L48.524 43.8533L47.3109 42.6399L42.2852 47.3199ZM36.9129 22.7066L34.1401 22.3599C34.0246 22.3599 33.8802 22.2733 33.7069 22.0999C33.5336 21.9266 33.4758 21.6955 33.5336 21.4066C33.5913 21.1177 33.5047 20.8288 33.2736 20.5399C33.0425 20.2511 32.7248 20.0777 32.3205 20.0199C31.9161 19.9622 31.5984 20.0488 31.3673 20.2799C31.1362 20.5111 30.9918 20.7711 30.9341 21.0599C30.8763 21.3488 30.7608 21.5511 30.5875 21.6666C30.4142 21.7822 30.212 21.8399 29.9809 21.8399L27.3814 21.6666C27.1503 21.6666 26.977 21.5799 26.8615 21.4066C26.746 21.2333 26.6882 21.0311 26.6882 20.7999L27.0348 18.0266C27.0348 17.5644 27.2659 17.3333 27.728 17.3333C28.1901 17.3333 28.5656 17.2466 28.8545 17.0733C29.1433 16.8999 29.2877 16.6111 29.2877 16.2066C29.2877 15.8022 29.1722 15.4844 28.9411 15.2533C28.71 15.0222 28.479 14.8777 28.2479 14.8199C28.0168 14.7622 27.8147 14.6466 27.6414 14.4733C27.4681 14.2999 27.3814 14.1555 27.3814 14.0399L27.728 11.2666C27.8435 10.8044 28.1324 10.5733 28.5945 10.5733L35.8731 11.4399C36.1042 11.4399 36.2775 11.5266 36.393 11.6999C36.5085 11.8733 36.5663 12.0755 36.5663 12.3066C36.5663 12.7688 36.2775 12.9999 35.6998 12.9999L29.2877 12.3066L29.1144 13.5199C29.6921 13.7511 30.1542 14.1266 30.5008 14.6466C30.8474 15.1666 30.9918 15.7444 30.9341 16.3799C30.8763 17.0155 30.6163 17.5644 30.1542 18.0266C29.6921 18.4888 29.1722 18.7777 28.5945 18.8933L28.4212 20.1066L29.6343 20.2799C29.8654 19.7022 30.2697 19.2688 30.8474 18.9799C31.4251 18.6911 32.0316 18.5755 32.6671 18.6333C33.3025 18.6911 33.8513 18.9511 34.3134 19.4133C34.7755 19.8755 35.0066 20.3955 35.0066 20.9733L36.2197 21.1466L37.0862 14.3866C37.0862 14.1555 37.1729 13.9822 37.3462 13.8666C37.5195 13.7511 37.6928 13.6933 37.8661 13.6933C38.0394 13.6933 38.2127 13.7799 38.386 13.9533C38.5593 14.1266 38.6459 14.3288 38.6459 14.5599L37.7794 22.0133C37.7794 22.2444 37.6639 22.4755 37.4328 22.7066H36.9129ZM37.7794 19.7599C37.4328 19.7599 37.2017 19.5288 37.0862 19.0666C36.9707 18.8355 36.9996 18.6333 37.1729 18.4599C37.3462 18.2866 37.5483 18.1999 37.7794 18.1999L40.5522 17.6799C41.4765 17.5644 42.1697 17.2177 42.6318 16.6399C42.9784 16.2933 43.325 15.8311 43.6716 15.2533L45.7512 8.83994L41.7653 4.85328L40.0323 6.58661C39.6857 6.93328 39.4546 7.33772 39.3391 7.79994C39.2236 8.37772 39.1658 8.78216 39.1658 9.01328V9.87994C39.1658 10.1111 39.0503 10.2844 38.8192 10.3999L35.8731 13.3466C35.642 13.5777 35.4687 13.8955 35.3532 14.2999C35.2377 14.7044 35.2377 15.1377 35.3532 15.5999L39.6857 11.4399C39.8012 11.2088 39.9745 11.0933 40.2056 11.0933C40.4367 11.0933 40.61 11.1799 40.7255 11.3533C40.841 11.5266 40.8988 11.7288 40.8988 11.9599C40.8988 12.1911 40.841 12.3644 40.7255 12.4799L35.8731 17.5066C35.7576 17.6222 35.5843 17.6799 35.3532 17.6799C35.1221 17.6799 34.8911 17.5644 34.66 17.3333C34.4289 17.1022 34.2556 16.8711 34.1401 16.6399L33.9668 15.9466C33.7357 15.3688 33.678 14.7333 33.7935 14.0399C33.909 13.3466 34.2556 12.7688 34.8333 12.3066L37.4328 9.53328V9.01328C37.4328 8.4355 37.5483 7.82883 37.7794 7.19328C38.0105 6.55772 38.4148 5.95105 38.9925 5.37328L41.2454 3.29328C41.3609 3.06216 41.5342 2.94661 41.7653 2.94661C41.9964 2.94661 42.1697 3.06216 42.2852 3.29328L47.1376 8.14661C47.4842 8.37772 47.542 8.60883 47.3109 8.83994L45.058 15.7733C44.7114 16.5822 44.307 17.2177 43.8449 17.6799C42.9206 18.6044 41.8808 19.1244 40.7255 19.2399L37.9527 19.7599H37.7794ZM47.3109 10.0533C47.0798 10.0533 46.9065 9.9955 46.791 9.87994L40.7255 3.81328C40.61 3.69772 40.5522 3.52439 40.5522 3.29328C40.5522 3.06216 40.61 2.88883 40.7255 2.77328L43.1517 0.346608C43.3828 0.231053 43.585 0.173275 43.7583 0.173275C43.9316 0.173275 44.1337 0.231053 44.3648 0.346608L50.257 6.23994C50.3725 6.47105 50.4303 6.67328 50.4303 6.84661C50.4303 7.01994 50.3725 7.22216 50.257 7.45328L47.8308 9.87994C47.7153 9.9955 47.542 10.0533 47.3109 10.0533ZM42.4585 3.29328L47.3109 8.14661L48.6973 6.93328L43.8449 1.90661L42.4585 3.29328ZM21.1426 40.5599C21.1426 40.5599 21.0848 40.5599 20.9693 40.5599L14.5572 39.1733C14.3261 39.1733 14.1528 39.0577 14.0373 38.8266C13.9218 38.5955 13.8929 38.3933 13.9507 38.2199C14.0084 38.0466 14.124 37.9022 14.2973 37.7866C14.4706 37.6711 14.6727 37.6133 14.9038 37.6133L20.6227 38.8266L20.9693 36.9199C21.0848 36.6888 21.2293 36.5444 21.4026 36.4866C21.5759 36.4288 21.778 36.4288 22.0091 36.4866C22.2402 36.5444 22.5001 36.4577 22.789 36.2266C23.0778 35.9955 23.28 35.7355 23.3955 35.4466C23.511 35.1577 23.4533 34.8688 23.2222 34.5799C22.9911 34.2911 22.7601 34.1177 22.529 34.0599C22.2979 34.0022 22.1246 33.8866 22.0091 33.7133C21.8936 33.5399 21.8358 33.3377 21.8358 33.1066L22.1824 31.1999L20.9693 31.0266C20.7382 31.6044 20.3339 32.0088 19.7562 32.2399C19.1785 32.4711 18.572 32.5288 17.9366 32.4133C17.3011 32.2977 16.7812 31.9799 16.3769 31.4599C15.9725 30.9399 15.7703 30.3911 15.7703 29.8133L14.5572 29.4666L12.9975 37.0933C12.882 37.3244 12.7376 37.4977 12.5643 37.6133C12.391 37.7288 12.1888 37.7577 11.9577 37.6999C11.7266 37.6422 11.5533 37.5266 11.4378 37.3533C11.3223 37.1799 11.3223 36.9777 11.4378 36.7466L13.1708 28.4266C13.2863 28.1955 13.4308 28.0222 13.6041 27.9066C13.7774 27.7911 13.9218 27.7911 14.0373 27.9066L16.6368 28.4266C16.8679 28.5422 17.0412 28.6866 17.1567 28.8599C17.2722 29.0333 17.3011 29.2644 17.2434 29.5533C17.1856 29.8422 17.2434 30.1311 17.4167 30.4199C17.59 30.7088 17.8499 30.8822 18.1965 30.9399C18.5431 30.9977 18.8608 30.9399 19.1497 30.7666C19.4385 30.5933 19.6118 30.3622 19.6696 30.0733C19.7273 29.7844 19.8429 29.5822 20.0162 29.4666C20.1895 29.3511 20.3916 29.2933 20.6227 29.2933L23.2222 29.8133C23.4533 29.9288 23.6266 30.0733 23.7421 30.2466C23.8576 30.4199 23.8576 30.6222 23.7421 30.8533L23.3955 32.7599C23.9732 33.1066 24.4064 33.5688 24.6953 34.1466C24.9841 34.7244 25.0419 35.3022 24.8686 35.8799C24.6953 36.4577 24.3775 36.9488 23.9154 37.3533C23.4533 37.7577 22.8756 38.0177 22.1824 38.1333L21.8358 40.0399C21.7203 40.3866 21.6047 40.5599 21.4892 40.5599H21.1426ZM8.8383 47.6666C8.60723 47.6666 8.43393 47.5511 8.3184 47.3199L3.466 42.4666C3.1194 42.2355 3.06163 42.0044 3.2927 41.7733L5.5456 34.8399C5.8922 34.0311 6.29657 33.3955 6.7587 32.9333C7.68297 32.0088 8.72277 31.4888 9.8781 31.3733L12.6509 30.8533C12.882 30.8533 13.0842 30.9111 13.2575 31.0266C13.4308 31.1422 13.5463 31.3155 13.6041 31.5466C13.6618 31.7777 13.6041 31.9799 13.4308 32.1533C13.2575 32.3266 13.0553 32.4133 12.8242 32.4133L10.0514 32.9333C9.12713 33.0488 8.43393 33.3955 7.9718 33.9733C7.6252 34.3199 7.2786 34.7822 6.932 35.3599L4.8524 41.7733L8.8383 45.7599L10.5713 44.0266C10.9179 43.6799 11.149 43.2755 11.2645 42.8133C11.38 42.2355 11.4378 41.8311 11.4378 41.5999V40.7333C11.4378 40.5022 11.5533 40.3288 11.7844 40.2133L14.7305 37.2666C14.9616 37.0355 15.1349 36.7177 15.2504 36.3133C15.3659 35.9088 15.3659 35.4755 15.2504 35.0133L10.9179 39.1733C10.8024 39.4044 10.6291 39.5199 10.398 39.5199C10.1669 39.5199 9.99363 39.4333 9.8781 39.2599C9.76257 39.0866 9.7048 38.8844 9.7048 38.6533C9.7048 38.4222 9.76257 38.2488 9.8781 38.1333L14.9038 33.1066C15.0193 32.9911 15.1926 32.9333 15.4237 32.9333C15.6548 32.9333 15.857 33.0488 16.0303 33.2799C16.2036 33.5111 16.348 33.7422 16.4635 33.9733L16.8101 34.6666C17.0412 35.2444 17.0701 35.8799 16.8968 36.5733C16.7235 37.2666 16.4057 37.8444 15.9436 38.3066L13.1708 41.0799V41.5999C13.1708 42.1777 13.0553 42.7844 12.8242 43.4199C12.5931 44.0555 12.1888 44.6622 11.6111 45.2399L9.3582 47.3199C9.24267 47.5511 9.06937 47.6666 8.8383 47.6666ZM6.7587 50.4399C6.52763 50.4399 6.35433 50.3822 6.2388 50.2666L0.1733 44.3733C0.0577667 44.1422 0 43.9399 0 43.7666C0 43.5933 0.0577667 43.3911 0.1733 43.1599L2.7728 40.7333C2.88833 40.6177 3.06163 40.5599 3.2927 40.5599C3.52377 40.5599 3.69707 40.6177 3.8126 40.7333L9.7048 46.7999C9.93587 46.9155 10.0514 47.0888 10.0514 47.3199C10.0514 47.5511 9.93587 47.7244 9.7048 47.8399L7.2786 50.2666C7.16307 50.3822 6.98977 50.4399 6.7587 50.4399ZM1.9063 43.6799L6.932 48.7066L8.1451 47.3199L3.2927 42.4666L1.9063 43.6799ZM18.1965 24.2666C17.6188 24.2666 17.0989 24.1222 16.6368 23.8333C16.1747 23.5444 15.8281 23.1688 15.597 22.7066L13.5174 22.8799C13.4019 22.8799 13.2575 22.8222 13.0842 22.7066C12.9109 22.5911 12.7664 22.4177 12.6509 22.1866L11.4378 14.0399C11.4378 13.8088 11.4956 13.6066 11.6111 13.4333C11.7266 13.2599 11.8711 13.1444 12.0444 13.0866C12.2177 13.0288 12.4198 13.0866 12.6509 13.2599C12.882 13.4333 12.9975 13.5777 12.9975 13.6933L14.0373 21.1466L15.9436 20.9733C16.1747 20.9733 16.3769 21.0311 16.5502 21.1466C16.7235 21.2622 16.839 21.4644 16.8968 21.7533C16.9545 22.0422 17.1278 22.3022 17.4167 22.5333C17.7055 22.7644 18.0232 22.8511 18.3698 22.7933C18.7164 22.7355 19.0052 22.5622 19.2363 22.2733C19.4674 21.9844 19.554 21.6955 19.4963 21.4066C19.4385 21.1177 19.4674 20.8866 19.5829 20.7133C19.6984 20.5399 19.8717 20.4533 20.1028 20.4533L22.0091 20.1066L21.6625 18.1999C21.6625 17.9688 21.7492 17.7666 21.9225 17.5933C22.0958 17.4199 22.2979 17.3333 22.529 17.3333C22.7601 17.3333 22.9911 17.1599 23.2222 16.8133C23.4533 16.4666 23.5399 16.1199 23.4822 15.7733C23.4244 15.4266 23.2511 15.1666 22.9623 14.9933C22.6734 14.8199 22.4135 14.7622 22.1824 14.8199C21.9513 14.8777 21.7203 14.8488 21.4892 14.7333C21.2581 14.6177 21.1426 14.4444 21.1426 14.2133L20.9693 12.3066L14.9038 13.1733C14.7883 13.1733 14.615 13.1155 14.3839 12.9999C14.1528 12.8844 14.0373 12.7399 14.0373 12.5666C14.0373 12.3933 14.0951 12.1911 14.2106 11.9599C14.3261 11.7288 14.4994 11.6133 14.7305 11.6133L21.4892 10.5733C21.7203 10.5733 21.9225 10.6599 22.0958 10.8333C22.2691 11.0066 22.3557 11.2088 22.3557 11.4399L22.7023 13.3466C23.1644 13.4622 23.5688 13.6933 23.9154 14.0399C24.6086 14.5022 25.013 15.0799 25.1285 15.7733C25.244 16.4666 25.1285 17.1022 24.7819 17.6799C24.4353 18.2577 24.0309 18.6622 23.5688 18.8933L23.7421 20.9733C23.8576 21.0888 23.8288 21.2622 23.6555 21.4933C23.4822 21.7244 23.3377 21.8399 23.2222 21.8399L21.1426 22.0133C21.0271 22.7066 20.7382 23.2844 20.2761 23.7466C19.814 24.2088 19.2941 24.4399 18.7164 24.4399C18.6009 24.3244 18.4276 24.2666 18.1965 24.2666ZM12.8242 19.7599H12.6509L9.8781 19.2399C8.72277 19.1244 7.68297 18.6044 6.7587 17.6799C6.18103 17.1022 5.77667 16.4666 5.5456 15.7733L3.2927 8.83994C3.17717 8.60883 3.23493 8.37772 3.466 8.14661L8.3184 3.29328C8.43393 3.06216 8.60723 2.94661 8.8383 2.94661C9.06937 2.94661 9.24267 3.06216 9.3582 3.29328L11.6111 5.37328C12.1888 5.95105 12.5931 6.55772 12.8242 7.19328C13.0553 7.82883 13.1708 8.4355 13.1708 9.01328V9.53328L15.7703 12.3066C16.2324 12.7688 16.5502 13.3466 16.7235 14.0399C16.8968 14.7333 16.8679 15.3688 16.6368 15.9466C16.5213 16.2933 16.4057 16.5822 16.2902 16.8133C16.1747 17.0444 16.0303 17.2466 15.857 17.4199C15.6837 17.5933 15.4815 17.6799 15.2504 17.6799C15.0193 17.6799 14.846 17.6222 14.7305 17.5066L9.7048 12.4799C9.58927 12.3644 9.5315 12.1911 9.5315 11.9599C9.5315 11.7288 9.58927 11.5555 9.7048 11.4399C9.82033 11.3244 9.99363 11.2666 10.2247 11.2666C10.4558 11.2666 10.6291 11.3244 10.7446 11.4399L15.0771 15.7733V15.5999C15.1926 15.2533 15.1926 14.8777 15.0771 14.4733C14.9616 14.0688 14.7883 13.6933 14.5572 13.3466L11.6111 10.5733C11.4956 10.3422 11.4378 10.1111 11.4378 9.87994V9.18661C11.4378 8.9555 11.38 8.60883 11.2645 8.14661L11.0912 7.79994C10.9757 7.33772 10.7446 6.93328 10.398 6.58661L8.665 5.02661L4.8524 8.83994L6.932 15.2533C7.04753 15.7155 7.39413 16.2355 7.9718 16.8133C8.54947 17.3911 9.24267 17.6799 10.0514 17.6799L12.8242 18.1999C13.0553 18.1999 13.2286 18.2866 13.3441 18.4599C13.4596 18.6333 13.5174 18.8355 13.5174 19.0666C13.4019 19.5288 13.1708 19.7599 12.8242 19.7599ZM3.2927 10.0533C3.06163 10.0533 2.88833 9.93772 2.7728 9.70661L0.3466 7.27994C0.231067 7.16439 0.1733 6.99105 0.1733 6.75994C0.1733 6.52883 0.231067 6.3555 0.3466 6.23994L6.2388 0.173275C6.46987 0.0577196 6.67205 -5.8189e-05 6.84535 -5.8189e-05C7.01865 -5.8189e-05 7.22083 0.0577196 7.4519 0.173275L9.8781 2.77328C9.99363 2.88883 10.0514 3.06216 10.0514 3.29328C10.0514 3.52439 9.99363 3.69772 9.8781 3.81328L3.8126 9.70661C3.69707 9.93772 3.52377 10.0533 3.2927 10.0533ZM1.9063 6.75994L3.2927 8.14661L8.1451 3.29328L6.932 1.90661L1.9063 6.75994Z" fill="#FD4C5C"/>
</svg>
