<svg width="51" height="52" viewBox="0 0 51 52" fill="none" xmlns="http://www.w3.org/2000/svg">
<path d="M46.0978 9.66321C45.9823 9.54765 45.809 9.46099 45.5779 9.40321C45.3468 9.34543 45.1446 9.37432 44.9713 9.48988C44.798 9.60543 44.7114 9.77877 44.7114 10.0099C44.7114 10.241 44.7692 10.4143 44.8847 10.5299C47.3109 13.6499 48.5818 17.1743 48.6973 21.1032L38.4726 18.3299C38.9347 15.6721 39.108 12.9565 38.9925 10.1832C38.877 8.56543 38.7037 7.00543 38.4726 5.50321C39.9745 6.19654 41.3032 7.06321 42.4585 8.10321C42.6896 8.21877 42.8917 8.27654 43.065 8.27654C43.2383 8.27654 43.4116 8.18988 43.5849 8.01654C43.7582 7.84321 43.816 7.66988 43.7582 7.49654C43.7005 7.32321 43.6138 7.17877 43.4983 7.06321C41.5342 5.21432 39.2813 3.88543 36.7396 3.07654L37.4328 0.996543C37.5483 0.765432 37.5483 0.56321 37.4328 0.389877C37.3173 0.216543 37.1728 0.100988 36.9995 0.0432101C36.8262 -0.0145677 36.6241 -0.0145677 36.393 0.0432101C36.1619 0.100988 36.0464 0.245432 36.0464 0.476543L35.1799 2.55654C30.9052 1.51654 26.7171 1.8921 22.6156 3.68321C18.5142 5.47432 15.3659 8.33432 13.1708 12.2632C13.1708 12.3788 13.1708 12.4943 13.1708 12.6099L13.3441 16.5965C13.3441 16.9432 13.4885 17.261 13.7773 17.5499C14.0662 17.8388 14.3839 18.041 14.7305 18.1565L22.1824 20.2365C22.529 20.3521 22.8756 20.3232 23.2222 20.1499C23.5688 19.9765 23.8576 19.7743 24.0887 19.5432L25.1285 17.9832L25.3018 19.7165C25.3018 20.1788 25.4173 20.5543 25.6484 20.8432C25.8795 21.1321 26.1683 21.3343 26.5149 21.4499L29.6343 22.1432L25.3018 38.0899H18.1965C17.9654 38.0899 17.7921 38.1477 17.6766 38.2632C17.5611 38.3788 17.5033 38.5521 17.5033 38.7832C17.5033 39.0143 17.5611 39.2165 17.6766 39.3899C17.7921 39.5632 17.9654 39.6499 18.1965 39.6499H33.1003C33.909 39.6499 34.6022 39.361 35.1799 38.7832L40.5522 33.2365C41.0143 32.7743 41.6498 32.4277 42.4585 32.1965C43.2672 31.9654 44.0182 31.9654 44.7114 32.1965L46.4444 32.8899L36.2197 43.1165C35.7576 43.5788 35.2377 43.8099 34.66 43.8099H5.199C5.08347 42.5388 5.40118 41.4988 6.15215 40.6899C6.90312 39.881 7.7985 39.4765 8.8383 39.4765L14.5572 39.6499C14.7883 39.6499 14.9904 39.5632 15.1637 39.3899C15.337 39.2165 15.4237 39.0143 15.4237 38.7832C15.4237 38.5521 15.337 38.3788 15.1637 38.2632C14.9904 38.1477 14.7883 38.0899 14.5572 38.0899H8.8383C7.33637 38.0899 6.09438 38.581 5.11235 39.5632C4.13032 40.5454 3.6393 42.0765 3.6393 44.1565C3.6393 44.5032 3.72595 44.7632 3.89925 44.9365C4.07255 45.1099 4.3325 45.1965 4.6791 45.1965H6.4121L4.8524 48.6632C4.62133 49.241 4.62133 49.8188 4.8524 50.3965H0.8665C0.635433 50.3965 0.43325 50.4832 0.25995 50.6565C0.08665 50.8299 0 51.0032 0 51.1765C0 51.3499 0.08665 51.5232 0.25995 51.6965C0.43325 51.8699 0.635433 51.9565 0.8665 51.9565H47.6575C47.8886 51.9565 48.0619 51.8699 48.1774 51.6965C48.2929 51.5232 48.3507 51.3499 48.3507 51.1765C48.3507 51.0032 48.2929 50.8299 48.1774 50.6565C48.0619 50.4832 47.8886 50.3965 47.6575 50.3965H40.5522C40.7833 49.8188 40.7255 49.241 40.3789 48.6632L37.9527 43.4632L48.0041 33.4099C48.2352 33.0632 48.3218 32.7165 48.264 32.3699C48.2063 32.0232 48.0041 31.7921 47.6575 31.6765L45.2313 30.8099C44.1915 30.4632 43.1517 30.4343 42.1119 30.7232C41.0721 31.0121 40.1478 31.5032 39.3391 32.1965L33.9668 37.7432C33.7357 37.9743 33.4469 38.0899 33.1003 38.0899H26.8615L31.0207 22.4899L34.1401 23.3565C34.4867 23.4721 34.8333 23.4721 35.1799 23.3565C35.5265 23.241 35.8153 23.0099 36.0464 22.6632L36.9129 21.2765L37.0862 23.0099C37.0862 23.3565 37.2306 23.6743 37.5194 23.9632C37.8083 24.2521 38.126 24.4543 38.4726 24.5699L45.9245 26.4765C46.2711 26.5921 46.6177 26.5921 46.9643 26.4765C47.3109 26.361 47.5997 26.1299 47.8308 25.7832L50.0837 22.4899C50.1992 22.3743 50.257 22.2588 50.257 22.1432C50.257 19.8321 49.9104 17.6077 49.2172 15.4699C48.524 13.3321 47.4842 11.3965 46.0978 9.66321ZM6.932 50.3965C6.81647 50.3965 6.70093 50.3677 6.5854 50.3099C6.46987 50.2521 6.38322 50.1365 6.32545 49.9632C6.26768 49.7899 6.2388 49.5877 6.2388 49.3565L8.1451 45.1965H9.8781L7.6252 50.0499C7.50967 50.281 7.2786 50.3965 6.932 50.3965ZM22.0091 50.3965H9.1849L11.4378 45.1965H23.3955L22.0091 50.3965ZM23.5688 50.3965L24.9552 45.1965H33.7935L36.2197 50.3965H23.5688ZM38.9925 49.3565C39.108 49.5877 39.1369 49.7899 39.0791 49.9632C39.0214 50.1365 38.877 50.281 38.6459 50.3965H38.2993C38.0682 50.3965 37.8372 50.281 37.6061 50.0499L35.5265 45.1965C35.9886 45.081 36.4508 44.8499 36.9129 44.5032L38.9925 49.3565ZM22.8756 18.6765C22.7601 18.7921 22.6445 18.7921 22.529 18.6765L15.0771 16.7699C14.9616 16.6543 14.9038 16.5388 14.9038 16.4232L14.7305 13.6499L24.4353 16.2499L22.8756 18.6765ZM25.3018 14.8632L15.0771 12.0899C16.9256 9.20099 19.3807 7.00543 22.4423 5.50321C25.504 4.00099 28.71 3.36543 32.0605 3.59654C30.9052 4.86765 29.8654 6.25432 28.9411 7.75654C27.4392 9.9521 26.2261 12.321 25.3018 14.8632ZM34.66 21.7965C34.66 21.9121 34.6022 21.9699 34.4867 21.9699L26.8615 19.8899C26.746 19.8899 26.6882 19.8321 26.6882 19.7165L26.5149 16.7699L36.393 19.3699L34.66 21.7965ZM36.9129 17.9832L26.6882 15.2099C27.6125 12.8988 28.7678 10.7032 30.1542 8.62321C31.3095 6.88988 32.5804 5.32988 33.9668 3.94321C34.8911 4.05877 35.8731 4.28988 36.9129 4.63654C37.144 6.48543 37.3173 8.33432 37.4328 10.1832C37.5483 12.841 37.375 15.441 36.9129 17.9832ZM46.6177 24.9165C46.5022 25.0321 46.3866 25.0899 46.2711 25.0899L38.8192 23.0099C38.7037 23.0099 38.6459 22.9521 38.6459 22.8365L38.4726 19.8899L48.1774 22.4899L46.6177 24.9165Z" fill="#FD4C5C"/>
</svg>
