<svg width="52" height="46" viewBox="0 0 52 46" fill="none" xmlns="http://www.w3.org/2000/svg">
<path d="M51.8267 23.1732C51.4801 22.4799 51.018 21.9599 50.4403 21.6132L50.9602 18.4932C50.9602 18.2621 50.9025 18.0599 50.7869 17.8865C50.6714 17.7132 50.4981 17.5976 50.267 17.5399C50.036 17.4821 49.8338 17.5399 49.6605 17.7132C49.4872 17.8865 49.4005 18.031 49.4005 18.1465L48.8806 21.2665C48.534 21.2665 48.1297 21.3821 47.6675 21.6132L44.5481 22.9999L47.8408 11.3865C47.8408 11.1554 47.9564 10.9532 48.1874 10.7799C48.4185 10.6065 48.7073 10.5199 49.0539 10.5199C49.4005 10.5199 49.7183 10.6643 50.0071 10.9532C50.2959 11.2421 50.3826 11.5599 50.267 11.9065L49.9204 14.6799C49.9204 14.911 49.9782 15.1132 50.0937 15.2865C50.2093 15.4599 50.3537 15.5465 50.527 15.5465C50.7003 15.5465 50.8736 15.4888 51.0469 15.3732C51.2202 15.2576 51.3646 15.0843 51.4801 14.8532L51.8267 12.0799C51.9423 11.271 51.7112 10.5488 51.1335 9.9132C50.5559 9.27765 49.9204 8.95987 49.2272 8.95987C48.534 8.95987 47.9275 9.1332 47.4076 9.47987C46.8877 9.82654 46.5122 10.3465 46.2811 11.0399L43.1617 21.9599V17.7999C43.1617 16.6443 42.8729 15.6621 42.2952 14.8532L40.0423 6.18654C39.8113 5.14654 39.2914 4.27987 38.4826 3.58654C37.6739 2.8932 36.7496 2.54654 35.7098 2.54654C34.67 2.54654 33.7458 2.86431 32.937 3.49987C32.1283 4.13543 31.5506 4.9732 31.204 6.0132L29.6443 12.2532C29.2977 11.6754 28.7778 11.1843 28.0846 10.7799C27.3914 10.3754 26.6116 10.1732 25.7451 10.1732C24.8786 10.1732 24.0987 10.5199 23.4055 11.2132C22.4813 10.4043 21.3837 9.99987 20.1128 9.99987H19.5929V8.26654C19.9395 7.80431 20.2573 7.19765 20.5461 6.44654C20.8349 5.69543 20.9216 4.9732 20.806 4.27987C20.806 4.16431 20.7483 4.01987 20.6327 3.84654C20.5172 3.6732 20.3439 3.58654 20.1128 3.58654C19.8818 3.58654 19.7085 3.6732 19.5929 3.84654C19.4774 4.01987 19.4196 4.22209 19.4196 4.4532C19.4196 5.26209 19.1308 6.09987 18.5531 6.96654C17.9755 7.8332 17.3978 8.26654 16.8201 8.26654C16.2425 8.26654 15.6937 7.86209 15.1738 7.0532C14.6539 6.24431 14.3939 5.40654 14.3939 4.53987C14.3939 3.6732 14.625 3.03765 15.0871 2.6332C15.5493 2.22876 16.1269 2.02654 16.8201 2.02654C17.2823 2.02654 17.6578 2.08431 17.9466 2.19987C18.2354 2.31543 18.4665 2.31543 18.6398 2.19987C18.8131 2.08431 18.9575 1.93987 19.073 1.76654C19.1886 1.5932 19.1886 1.41987 19.073 1.24654C18.9575 1.0732 18.842 0.928759 18.7264 0.813203C18.1488 0.582092 17.5133 0.466537 16.8201 0.466537C15.6648 0.466537 14.7117 0.842092 13.9607 1.5932C13.2097 2.34431 12.8342 3.29765 12.8342 4.4532C12.8342 5.95543 13.2964 7.28431 14.2206 8.43987V9.99987H13.7007C12.3143 9.99987 11.159 10.4621 10.2347 11.3865C9.31047 12.311 8.84834 13.4088 8.84834 14.6799V21.9599L7.63524 17.9732C7.63524 17.7421 7.51971 17.5688 7.28864 17.4532C7.05757 17.3376 6.85539 17.3088 6.68209 17.3665C6.50879 17.4243 6.36437 17.5399 6.24884 17.7132C6.13331 17.8865 6.13331 18.0888 6.24884 18.3199L7.46194 22.9999L4.34254 21.6132C3.88041 21.3821 3.47604 21.2665 3.12944 21.2665L1.74304 11.9065C1.62751 11.5599 1.71416 11.2421 2.00299 10.9532C2.29182 10.6643 2.60954 10.5199 2.95614 10.5199C3.30274 10.5199 3.59157 10.6065 3.82264 10.7799C4.05371 10.9532 4.16924 11.1554 4.16924 11.3865L5.20904 15.0265C5.32457 15.2576 5.46899 15.4021 5.64229 15.4599C5.81559 15.5176 5.98889 15.5176 6.16219 15.4599C6.33549 15.4021 6.47991 15.2865 6.59544 15.1132C6.71097 14.9399 6.76874 14.7376 6.76874 14.5065L5.72894 11.0399C5.49787 10.3465 5.12239 9.82654 4.60249 9.47987C4.08259 9.1332 3.47604 8.95987 2.78284 8.95987C2.08964 8.95987 1.45421 9.27765 0.876541 9.9132C0.298875 10.5488 0.067808 11.271 0.183341 12.0799L1.56974 21.6132C0.992075 21.9599 0.558825 22.4799 0.269991 23.1732C-0.018842 23.8665 -0.0477254 24.5888 0.183341 25.3399C0.414408 26.091 0.876541 26.6399 1.56974 26.9865L2.43624 27.5065L2.60954 29.7599C2.72507 30.4532 3.01391 31.1176 3.47604 31.7532C3.93817 32.3888 4.45807 32.8799 5.03574 33.2265L12.141 37.2132V39.4665C11.6789 39.5821 11.3034 39.8132 11.0146 40.1599C10.7258 40.5065 10.5813 40.911 10.5813 41.3732V43.7999C10.5813 44.2621 10.7546 44.6665 11.1012 45.0132C11.4478 45.3599 11.91 45.5332 12.4876 45.5332H39.5224C40.1001 45.5332 40.5622 45.3599 40.9088 45.0132C41.2554 44.6665 41.4287 44.2621 41.4287 43.7999V41.3732C41.4287 40.911 41.2843 40.5065 40.9955 40.1599C40.7067 39.8132 40.3312 39.5821 39.869 39.4665V37.2132L46.9743 33.2265C47.552 32.8799 48.0719 32.3888 48.534 31.7532C48.9962 31.1176 49.285 30.4532 49.4005 29.7599L49.5738 27.5065L50.4403 26.9865C51.1335 26.6399 51.5957 26.091 51.8267 25.3399C52.0578 24.5888 52.0578 23.8665 51.8267 23.1732ZM26.6982 43.9732H25.3118V41.0265H26.6982V43.9732ZM20.2861 27.1599V25.4265H21.3259C21.557 25.4265 21.6725 25.4843 21.6725 25.5999V28.3732C21.2104 27.911 20.7483 27.5065 20.2861 27.1599ZM34.4967 12.7732C34.8433 13.0043 35.2188 13.1199 35.6232 13.1199C36.0276 13.1199 36.403 13.0043 36.7496 12.7732V13.8132C36.7496 14.1599 36.6341 14.4488 36.403 14.6799C36.172 14.911 35.912 15.0265 35.6232 15.0265C35.3344 15.0265 35.0744 14.911 34.8433 14.6799C34.6123 14.4488 34.4967 14.1599 34.4967 13.8132V12.7732ZM38.3093 11.9065C38.5404 11.6754 38.7715 11.3865 39.0025 11.0399L39.5224 10.1732L40.2156 13.2932C39.7535 13.0621 39.1758 12.9465 38.4826 12.9465H38.3093V11.9065ZM35.7098 11.5599C35.0166 11.5599 34.3812 11.2132 33.8035 10.5199C33.2259 9.82654 32.8793 9.07543 32.7637 8.26654H33.1103C33.9191 8.26654 34.67 8.03543 35.3632 7.5732C35.5943 7.34209 35.7676 7.34209 35.8831 7.5732C36.6919 8.03543 37.5584 8.26654 38.4826 8.26654C38.3671 9.07543 38.0205 9.82654 37.4428 10.5199C36.8652 11.2132 36.2875 11.5599 35.7098 11.5599ZM32.4171 11.0399C32.5327 11.271 32.706 11.5021 32.937 11.7332V12.9465H32.7637C32.0705 12.9465 31.4351 13.0621 30.8574 13.2932L31.7239 9.99987L32.4171 11.0399ZM24.9652 19.0132C25.3118 19.1288 25.6584 19.1865 26.005 19.1865C26.3516 19.1865 26.6982 19.1288 27.0448 19.0132V19.8799C27.0448 20.111 26.9293 20.3421 26.6982 20.5732C26.4672 20.8043 26.2361 20.9199 26.005 20.9199C25.774 20.9199 25.5429 20.8043 25.3118 20.5732C25.0808 20.3421 24.9652 20.111 24.9652 19.8799V19.0132ZM23.4055 18.1465V18.8399C22.7123 18.9554 22.0769 19.1288 21.4992 19.3599V17.1065C21.4992 16.8754 21.557 16.7599 21.6725 16.7599H22.539C22.7701 17.2221 23.0589 17.6843 23.4055 18.1465ZM20.2861 23.6932C20.2861 22.8843 20.6039 22.1332 21.2393 21.4399C21.8747 20.7465 22.6546 20.3999 23.5788 20.3999C23.6944 20.9776 23.9832 21.4688 24.4453 21.8732C24.9075 22.2776 25.4274 22.4799 26.005 22.4799C26.5827 22.4799 27.1026 22.2776 27.5647 21.8732C28.0269 21.4688 28.3157 20.9776 28.4312 20.3999C29.3555 20.3999 30.1354 20.7465 30.7708 21.4399C31.4062 22.1332 31.7239 22.9421 31.7239 23.8665H30.6841C30.1065 23.8665 29.6443 24.0399 29.2977 24.3865C28.9511 24.7332 28.7778 25.1376 28.7778 25.5999V30.4532H23.2322V25.5999C23.2322 25.1376 23.0589 24.7332 22.7123 24.3865C22.3657 24.0399 21.9036 23.8665 21.3259 23.8665H20.2861V23.6932ZM28.2579 33.5732V39.4665H23.7521V33.5732C23.7521 32.9954 23.6944 32.4176 23.5788 31.8399H28.4312C28.3157 32.4176 28.2579 32.9954 28.2579 33.5732ZM30.3375 25.5999C30.3375 25.4843 30.4531 25.4265 30.6841 25.4265H31.7239V27.1599C31.2618 27.5065 30.7997 27.911 30.3375 28.3732V25.5999ZM33.2836 23.6932C33.2836 22.4221 32.8215 21.3243 31.8972 20.3999C30.973 19.4754 29.8754 18.9554 28.6045 18.8399V18.1465C28.9511 17.7999 29.2977 17.2221 29.6443 16.4132C29.9909 15.8354 30.4242 15.3732 30.9441 15.0265C31.464 14.6799 32.0705 14.5065 32.7637 14.5065H33.1103C33.2259 15.0843 33.5147 15.5465 33.9768 15.8932C34.439 16.2399 34.9878 16.4132 35.6232 16.4132C36.2586 16.4132 36.8074 16.2399 37.2695 15.8932C37.7317 15.5465 38.0205 15.0843 38.136 14.5065H38.4826C39.2914 14.5065 39.9846 14.7954 40.5622 15.3732C41.1399 15.951 41.4865 16.5865 41.602 17.2799L40.2156 18.3199C39.0603 19.1288 38.4826 20.2265 38.4826 21.6132V25.5999C37.7894 25.7154 37.0962 25.831 36.403 25.9465L35.0166 26.1199C34.439 26.1199 33.8613 26.2354 33.2836 26.4665V23.6932ZM40.0423 21.6132C40.0423 20.6888 40.3889 19.9954 41.0821 19.5332L41.602 19.1865V24.2132L40.0423 24.9065V21.6132ZM35.7098 4.10654C36.403 4.10654 37.0096 4.33765 37.5295 4.79987C38.0494 5.26209 38.4249 5.89765 38.6559 6.70654C37.9627 6.82209 37.414 6.70654 37.0096 6.35987C36.6052 6.0132 36.1431 5.83987 35.6232 5.83987C35.1033 5.83987 34.6412 6.0132 34.2368 6.35987C33.8324 6.70654 33.2836 6.82209 32.5904 6.70654C32.8215 5.89765 33.197 5.26209 33.7169 4.79987C34.2368 4.33765 34.9011 4.10654 35.7098 4.10654ZM26.005 11.7332C26.6982 11.7332 27.3048 11.9932 27.8247 12.5132C28.3446 13.0332 28.6045 13.6688 28.6045 14.4199C28.6045 15.171 28.3446 15.9221 27.8247 16.6732C27.3048 17.4243 26.6982 17.7999 26.005 17.7999C25.3118 17.7999 24.7053 17.4243 24.1854 16.6732C23.6655 15.9221 23.4055 15.171 23.4055 14.4199C23.4055 13.6688 23.6655 13.0332 24.1854 12.5132C24.7053 11.9932 25.3118 11.7332 26.005 11.7332ZM18.0332 9.6532V10.6932C18.0332 11.0399 17.9177 11.3288 17.6866 11.5599C17.4556 11.791 17.1956 11.9065 16.9068 11.9065C16.618 11.9065 16.358 11.791 16.1269 11.5599C15.8959 11.3288 15.7803 11.0399 15.7803 10.6932V9.6532C16.1269 9.76876 16.5024 9.82654 16.9068 9.82654C17.3112 9.82654 17.6866 9.76876 18.0332 9.6532ZM13.7007 11.3865H14.3939C14.5095 11.9643 14.7983 12.4554 15.2604 12.8599C15.7226 13.2643 16.2714 13.4665 16.9068 13.4665C17.5422 13.4665 18.091 13.2643 18.5531 12.8599C19.0153 12.4554 19.3041 11.9643 19.4196 11.3865H20.1128C21.0371 11.3865 21.7881 11.6754 22.3657 12.2532C22.0191 12.9465 21.8458 13.6399 21.8458 14.3332L22.0191 15.1999H21.6725C21.2104 15.1999 20.806 15.3732 20.4594 15.7199C20.1128 16.0665 19.9395 16.5288 19.9395 17.1065V20.5732C19.1308 21.4976 18.7264 22.5376 18.7264 23.6932V26.4665C18.1488 26.2354 17.5711 26.1199 16.9934 26.1199L15.607 25.9465C15.0294 25.9465 14.4517 25.831 13.874 25.5999V17.1065C13.874 16.5288 13.7007 16.0665 13.3541 15.7199C13.0075 15.3732 12.6032 15.1999 12.141 15.1999H10.408V14.8532C10.408 13.9288 10.7258 13.1199 11.3612 12.4265C11.9966 11.7332 12.7765 11.3865 13.7007 11.3865ZM10.408 16.7599H12.141C12.2566 16.7599 12.3143 16.8754 12.3143 17.1065V25.0799L10.408 24.2132V16.7599ZM23.4055 43.9732H12.4876C12.2566 43.9732 12.141 43.9154 12.141 43.7999V41.3732C12.141 41.1421 12.2566 41.0265 12.4876 41.0265H16.4735C16.7046 41.0265 16.8779 40.9688 16.9934 40.8532C17.109 40.7376 17.1667 40.5643 17.1667 40.3332C17.1667 40.1021 17.109 39.8999 16.9934 39.7265C16.8779 39.5532 16.7046 39.4665 16.4735 39.4665H13.7007V36.6932C13.7007 36.4621 13.5852 36.2888 13.3541 36.1732L5.72894 31.8399C4.80467 31.3776 4.28477 30.5688 4.16924 29.4132L3.99594 28.3732L8.67504 30.7999C8.90611 30.9154 9.10829 30.9443 9.28159 30.8865C9.45489 30.8288 9.59931 30.7132 9.71484 30.5399C9.83037 30.3665 9.85926 30.1643 9.80149 29.9332C9.74372 29.7021 9.59931 29.5865 9.36824 29.5865L2.26294 25.5999C1.91634 25.4843 1.68527 25.2243 1.56974 24.8199C1.45421 24.4154 1.48309 24.0399 1.65639 23.6932C1.82969 23.3465 2.11852 23.0865 2.52289 22.9132C2.92726 22.7399 3.30274 22.7688 3.64934 22.9999L11.7944 26.4665C12.9498 27.0443 14.1629 27.391 15.4337 27.5065L16.9934 27.6799C18.3798 27.7954 19.5929 28.431 20.6327 29.5865C21.6725 30.7421 22.1924 32.071 22.1924 33.5732V39.4665H19.9395C19.824 39.4665 19.6796 39.5532 19.5063 39.7265C19.333 39.8999 19.2463 40.1021 19.2463 40.3332C19.2463 40.5643 19.333 40.7376 19.5063 40.8532C19.6796 40.9688 19.824 41.0265 19.9395 41.0265H23.4055C23.6366 41.0265 23.7521 41.1421 23.7521 41.3732V43.7999C23.7521 43.9154 23.6366 43.9732 23.4055 43.9732ZM39.869 43.7999C39.869 43.9154 39.7535 43.9732 39.5224 43.9732H28.6045C28.3735 43.9732 28.2579 43.9154 28.2579 43.7999V41.3732C28.2579 41.1421 28.3735 41.0265 28.6045 41.0265H39.5224C39.7535 41.0265 39.869 41.1421 39.869 41.3732V43.7999ZM49.7471 25.5999L42.6418 29.5865C42.4108 29.5865 42.2664 29.7021 42.2086 29.9332C42.1508 30.1643 42.1797 30.3665 42.2952 30.5399C42.4108 30.7132 42.5552 30.8288 42.7285 30.8865C42.9018 30.9443 43.104 30.9154 43.335 30.7999L48.0141 28.3732L47.8408 29.4132C47.7253 30.5688 47.2054 31.3776 46.2811 31.8399L38.6559 36.1732C38.4249 36.2888 38.3093 36.4621 38.3093 36.6932V39.4665H29.8176V33.5732C29.8176 32.071 30.3375 30.7421 31.3773 29.5865C32.4171 28.431 33.6302 27.7954 35.0166 27.6799L36.5763 27.5065C37.8472 27.391 39.0603 27.0443 40.2156 26.4665L48.3607 22.9999C48.7073 22.7688 49.0828 22.7399 49.4872 22.9132C49.8916 23.0865 50.1804 23.3465 50.3537 23.6932C50.527 24.0399 50.5559 24.4154 50.4403 24.8199C50.3248 25.2243 50.0937 25.4843 49.7471 25.5999Z" fill="#FD4C5C"/>
</svg>
