<svg width="50" height="50" viewBox="0 0 50 50" fill="none" xmlns="http://www.w3.org/2000/svg">
<path d="M8.71698 12.8666C7.67698 12.8666 6.75253 12.4622 5.94365 11.6533C5.13476 10.8444 4.73031 9.89105 4.73031 8.79328C4.73031 7.6955 5.13476 6.74216 5.94365 5.93328C6.75253 5.12439 7.70587 4.71994 8.80365 4.71994C9.90142 4.71994 10.8548 5.12439 11.6636 5.93328C12.4725 6.74216 12.877 7.6955 12.877 8.79328C12.877 9.89105 12.4725 10.8444 11.6636 11.6533C10.8548 12.4622 9.87253 12.8666 8.71698 12.8666ZM8.71698 6.27994C8.02365 6.27994 7.44587 6.51105 6.98365 6.97328C6.52142 7.4355 6.29031 8.01328 6.29031 8.70661C6.29031 9.39994 6.52142 9.97772 6.98365 10.4399C7.44587 10.9022 8.02365 11.1333 8.71698 11.1333C9.41031 11.1333 9.98809 10.9022 10.4503 10.4399C10.9125 9.97772 11.1436 9.39994 11.1436 8.70661C11.1436 8.01328 10.9125 7.4355 10.4503 6.97328C9.98809 6.51105 9.41031 6.27994 8.71698 6.27994ZM46.157 37.1333H44.597C44.4814 36.4399 44.1925 35.8622 43.7303 35.3999C43.2681 34.9377 42.6903 34.7066 41.997 34.7066H33.157V19.4533C33.6192 19.6844 33.9948 20.0022 34.2836 20.4066C34.5725 20.8111 34.717 21.2444 34.717 21.7066C34.717 21.9377 34.8036 22.1399 34.977 22.3133C35.1503 22.4866 35.3525 22.5733 35.5836 22.5733C35.8148 22.5733 36.017 22.4866 36.1903 22.3133C36.3636 22.1399 36.4503 21.9377 36.4503 21.7066C36.4503 21.0133 36.6814 20.4355 37.1436 19.9733C37.6059 19.5111 38.1836 19.2799 38.877 19.2799C39.5703 19.2799 40.1481 19.5111 40.6103 19.9733C41.0725 20.4355 41.3036 21.0133 41.3036 21.7066C41.3036 21.9377 41.3614 22.1399 41.477 22.3133C41.5925 22.4866 41.7659 22.5733 41.997 22.5733C42.2281 22.5733 42.4303 22.4866 42.6036 22.3133C42.777 22.1399 42.8636 21.9377 42.8636 21.7066C42.8636 21.0133 43.0948 20.4355 43.557 19.9733C44.0192 19.5111 44.597 19.2799 45.2903 19.2799C45.9836 19.2799 46.5614 19.5111 47.0236 19.9733C47.4859 20.4355 47.717 21.0133 47.717 21.7066C47.717 21.9377 47.8036 22.1399 47.977 22.3133C48.1503 22.4866 48.3525 22.5733 48.5836 22.5733C48.8148 22.5733 49.017 22.4866 49.1903 22.3133C49.3636 22.1399 49.4503 21.9377 49.4503 21.7066C49.4503 18.7022 48.7281 15.9288 47.2836 13.3866C45.8392 10.8444 43.8748 8.79328 41.3903 7.23328C38.9059 5.67328 36.1614 4.8355 33.157 4.71994V2.98661C33.157 2.7555 33.0703 2.58216 32.897 2.46661C32.7236 2.35105 32.5214 2.29328 32.2903 2.29328C32.0592 2.29328 31.857 2.35105 31.6836 2.46661C31.5103 2.58216 31.4236 2.7555 31.4236 2.98661L31.597 4.71994C28.5925 4.8355 25.8481 5.67328 23.3636 7.23328C20.8792 8.79328 18.9148 10.8444 17.4703 13.3866C16.0259 15.9288 15.3036 18.7022 15.3036 21.7066C15.3036 21.9377 15.3614 22.1399 15.477 22.3133C15.5925 22.4866 15.7659 22.5733 15.997 22.5733C16.2281 22.5733 16.4303 22.4866 16.6036 22.3133C16.777 22.1399 16.8636 21.9377 16.8636 21.7066C16.8636 21.0133 17.0948 20.4355 17.557 19.9733C18.0192 19.5111 18.597 19.2799 19.2903 19.2799C19.9836 19.2799 20.5614 19.5111 21.0236 19.9733C21.4859 20.4355 21.717 21.0133 21.717 21.7066C21.717 21.9377 21.8036 22.1399 21.977 22.3133C22.1503 22.4866 22.3525 22.5733 22.5836 22.5733C22.8148 22.5733 23.017 22.4866 23.1903 22.3133C23.3636 22.1399 23.4503 21.9377 23.4503 21.7066C23.4503 21.0133 23.6814 20.4355 24.1436 19.9733C24.6059 19.5111 25.1836 19.2799 25.877 19.2799C26.5703 19.2799 27.1481 19.5111 27.6103 19.9733C28.0725 20.4355 28.3036 21.0133 28.3036 21.7066C28.3036 21.9377 28.3614 22.1399 28.477 22.3133C28.5925 22.4866 28.7659 22.5733 28.997 22.5733C29.2281 22.5733 29.4303 22.4866 29.6036 22.3133C29.777 22.1399 29.8636 21.9377 29.8636 21.7066C29.8636 21.2444 30.0081 20.8111 30.297 20.4066C30.5859 20.0022 31.0192 19.6844 31.597 19.4533V34.7066H18.077L9.58365 26.2133C9.12142 25.8666 8.57253 25.6644 7.93698 25.6066C7.30142 25.5488 6.75253 25.7511 6.29031 26.2133L5.77031 26.5599C5.07698 26.0977 4.32587 25.8955 3.51698 25.9533C2.70809 26.0111 2.04365 26.3577 1.52365 26.9933C1.00365 27.6288 0.743646 28.3511 0.743646 29.1599C0.743646 29.9688 1.03253 30.6622 1.61031 31.2399L13.397 43.0266L10.4503 48.2266C10.3348 48.4577 10.3636 48.7177 10.537 49.0066C10.7103 49.2955 10.9125 49.4399 11.1436 49.4399H15.3036C15.5348 49.4399 15.7659 49.2666 15.997 48.9199L18.9436 43.7199H31.597V48.5733C31.597 48.8044 31.6548 49.0066 31.7703 49.1799C31.8859 49.3533 32.0592 49.4399 32.2903 49.4399C32.5214 49.4399 32.7236 49.3533 32.897 49.1799C33.0703 49.0066 33.157 48.8044 33.157 48.5733V43.7199H38.357L41.3036 48.9199C41.5348 49.2666 41.7659 49.4399 41.997 49.4399H46.157C46.5036 49.4399 46.7348 49.2955 46.8503 49.0066C46.9659 48.7177 46.9659 48.4577 46.8503 48.2266L44.2503 43.7199H46.157C47.0814 43.7199 47.8614 43.4022 48.497 42.7666C49.1325 42.1311 49.4503 41.3511 49.4503 40.4266C49.4503 39.5022 49.1325 38.7222 48.497 38.0866C47.8614 37.4511 47.0814 37.1333 46.157 37.1333ZM47.3703 18.2399C46.677 17.7777 45.9259 17.5755 45.117 17.6333C44.3081 17.6911 43.557 18.0088 42.8636 18.5866C42.7481 16.5066 42.1992 14.5711 41.217 12.7799C40.2348 10.9888 38.9348 9.45772 37.317 8.18661L35.0636 6.62661C38.0681 7.08883 40.697 8.38883 42.9503 10.5266C45.2036 12.6644 46.677 15.2355 47.3703 18.2399ZM36.4503 9.57328C37.837 10.6133 38.9348 11.9133 39.7436 13.4733C40.5525 15.0333 41.0148 16.6799 41.1303 18.4133C40.437 17.9511 39.657 17.7199 38.7903 17.7199C37.9236 17.7199 37.1436 18.0088 36.4503 18.5866V18.2399C36.4503 15.0044 35.8148 11.8844 34.5436 8.87994L34.197 7.83994L36.4503 9.57328ZM21.717 18.5866C21.1392 18.0088 20.4459 17.6911 19.637 17.6333C18.8281 17.5755 18.0192 17.7777 17.2103 18.2399C18.0192 15.2355 19.5214 12.6644 21.717 10.5266C23.9125 8.38883 26.5125 7.08883 29.517 6.62661L27.2636 8.18661C25.6459 9.45772 24.3459 10.9888 23.3636 12.7799C22.3814 14.5711 21.8325 16.5066 21.717 18.5866ZM28.3036 18.2399V18.5866C27.6103 18.0088 26.8014 17.7199 25.877 17.7199C24.9525 17.7199 24.1436 17.9511 23.4503 18.4133C23.5659 16.6799 24.057 15.0333 24.9236 13.4733C25.7903 11.9133 26.917 10.6133 28.3036 9.57328L30.557 7.83994L30.037 8.87994C28.8814 11.8844 28.3036 15.0044 28.3036 18.2399ZM29.8636 18.5866V18.2399C29.8636 15.2355 30.4414 12.3466 31.597 9.57328L32.2903 7.66661L33.157 9.57328C34.197 12.3466 34.717 15.2355 34.717 18.2399V18.5866C34.0236 18.0088 33.2148 17.7199 32.2903 17.7199C31.3659 17.7199 30.557 18.0088 29.8636 18.5866ZM7.33031 27.4266C7.44587 27.3111 7.6192 27.2533 7.85031 27.2533C8.08142 27.2533 8.25476 27.3111 8.37031 27.4266L17.037 36.0933C17.2681 36.3244 17.4992 36.4399 17.7303 36.4399H41.997C42.2281 36.4399 42.4303 36.4977 42.6036 36.6133C42.777 36.7288 42.8636 36.9022 42.8636 37.1333H16.3436L6.98365 27.7733L7.33031 27.4266ZM14.7836 47.7066H12.5303L14.957 43.7199H17.037L14.7836 47.7066ZM44.7703 47.7066H42.517L40.2636 43.7199H42.3436L44.7703 47.7066ZM46.157 41.9866H14.7836L2.82365 30.0266C2.59253 29.7955 2.47698 29.4777 2.47698 29.0733C2.47698 28.6688 2.62142 28.3222 2.91031 28.0333C3.1992 27.7444 3.54587 27.5999 3.95031 27.5999C4.35476 27.5999 4.67253 27.7155 4.90365 27.9466L15.477 38.5199C15.7081 38.7511 15.8814 38.8666 15.997 38.8666H46.157C46.6192 38.8666 46.9948 39.0111 47.2836 39.2999C47.5725 39.5888 47.717 39.9644 47.717 40.4266C47.717 40.8888 47.5725 41.2644 47.2836 41.5533C46.9948 41.8422 46.6192 41.9866 46.157 41.9866ZM8.71698 3.85328C8.48587 3.85328 8.31253 3.76661 8.19698 3.59328C8.08142 3.41994 8.02365 3.21772 8.02365 2.98661V1.42661C8.02365 1.1955 8.08142 0.993275 8.19698 0.819942C8.31253 0.646608 8.48587 0.559942 8.71698 0.559942C8.94809 0.559942 9.15031 0.646608 9.32365 0.819942C9.49698 0.993275 9.58365 1.1955 9.58365 1.42661V2.98661C9.58365 3.21772 9.49698 3.41994 9.32365 3.59328C9.15031 3.76661 8.94809 3.85328 8.71698 3.85328ZM5.94365 4.71994C5.59698 4.71994 5.36587 4.54661 5.25031 4.19994L4.38365 2.81328C4.26809 2.58216 4.26809 2.32216 4.38365 2.03328C4.4992 1.74439 4.73031 1.59994 5.07698 1.59994C5.42365 1.59994 5.65476 1.7155 5.77031 1.94661L6.63698 3.33328C6.75253 3.67994 6.75253 3.99772 6.63698 4.28661C6.52142 4.5755 6.29031 4.71994 5.94365 4.71994ZM3.86365 6.79994C3.74809 6.79994 3.57476 6.74216 3.34365 6.62661L1.95698 5.75994C1.72587 5.64439 1.61031 5.41328 1.61031 5.06661C1.61031 4.71994 1.75476 4.48883 2.04365 4.37328C2.33253 4.25772 2.59253 4.25772 2.82365 4.37328L4.21031 5.23994C4.55698 5.47105 4.67253 5.78883 4.55698 6.19328C4.44142 6.59772 4.21031 6.79994 3.86365 6.79994ZM2.99698 9.57328H1.43698C1.20587 9.57328 1.00365 9.48661 0.830312 9.31328C0.656979 9.13994 0.570312 8.93772 0.570312 8.70661C0.570312 8.4755 0.656979 8.30216 0.830312 8.18661C1.00365 8.07105 1.20587 8.01328 1.43698 8.01328H2.99698C3.22809 8.01328 3.43031 8.07105 3.60365 8.18661C3.77698 8.30216 3.86365 8.4755 3.86365 8.70661C3.86365 8.93772 3.77698 9.13994 3.60365 9.31328C3.43031 9.48661 3.22809 9.57328 2.99698 9.57328ZM2.47698 13.2133C2.01476 13.2133 1.72587 13.0111 1.61031 12.6066C1.49476 12.2022 1.61031 11.8844 1.95698 11.6533L3.34365 10.9599C3.69031 10.7288 4.00809 10.6999 4.29698 10.8733C4.58587 11.0466 4.73031 11.2777 4.73031 11.5666C4.73031 11.8555 4.55698 12.1155 4.21031 12.3466L2.82365 13.0399C2.70809 13.1555 2.59253 13.2133 2.47698 13.2133ZM5.07698 15.8133C4.73031 15.8133 4.4992 15.6977 4.38365 15.4666C4.26809 15.2355 4.26809 14.9466 4.38365 14.5999L5.25031 13.2133C5.36587 13.0977 5.5392 13.0111 5.77031 12.9533C6.00142 12.8955 6.20365 12.9244 6.37698 13.0399C6.55031 13.1555 6.66587 13.2999 6.72365 13.4733C6.78142 13.6466 6.75253 13.8488 6.63698 14.0799L5.77031 15.4666C5.65476 15.6977 5.42365 15.8133 5.07698 15.8133ZM8.71698 16.8533C8.48587 16.8533 8.31253 16.7666 8.19698 16.5933C8.08142 16.4199 8.02365 16.2177 8.02365 15.9866V14.4266C8.02365 14.1955 8.08142 13.9933 8.19698 13.8199C8.31253 13.6466 8.48587 13.5599 8.71698 13.5599C8.94809 13.5599 9.15031 13.6466 9.32365 13.8199C9.49698 13.9933 9.58365 14.1955 9.58365 14.4266V15.9866C9.58365 16.2177 9.49698 16.4199 9.32365 16.5933C9.15031 16.7666 8.94809 16.8533 8.71698 16.8533ZM12.357 15.8133C12.1259 15.8133 11.8948 15.6977 11.6636 15.4666L10.9703 14.0799C10.8548 13.8488 10.8259 13.6466 10.8836 13.4733C10.9414 13.2999 11.057 13.1555 11.2303 13.0399C11.4036 12.9244 11.6059 12.8955 11.837 12.9533C12.0681 13.0111 12.2414 13.0977 12.357 13.2133L13.0503 14.5999C13.2814 14.9466 13.3103 15.2355 13.137 15.4666C12.9636 15.6977 12.7036 15.8133 12.357 15.8133ZM15.1303 13.2133C15.0148 13.2133 14.8414 13.1555 14.6103 13.0399L13.2236 12.3466C13.1081 12.2311 13.0214 12.0577 12.9636 11.8266C12.9059 11.5955 12.9348 11.3933 13.0503 11.2199C13.1659 11.0466 13.3103 10.9311 13.4836 10.8733C13.657 10.8155 13.8592 10.8444 14.0903 10.9599L15.477 11.6533C15.8236 11.8844 15.9392 12.2022 15.8236 12.6066C15.7081 13.0111 15.477 13.2133 15.1303 13.2133ZM15.997 9.57328H14.437C14.2059 9.57328 14.0036 9.48661 13.8303 9.31328C13.657 9.13994 13.5703 8.93772 13.5703 8.70661C13.5703 8.4755 13.657 8.30216 13.8303 8.18661C14.0036 8.07105 14.2059 8.01328 14.437 8.01328H15.997C16.2281 8.01328 16.4303 8.07105 16.6036 8.18661C16.777 8.30216 16.8636 8.4755 16.8636 8.70661C16.8636 8.93772 16.777 9.13994 16.6036 9.31328C16.4303 9.48661 16.2281 9.57328 15.997 9.57328ZM13.7436 6.79994C13.2814 6.79994 12.9925 6.59772 12.877 6.19328C12.7614 5.78883 12.877 5.47105 13.2236 5.23994L14.6103 4.37328C14.957 4.25772 15.2748 4.25772 15.5636 4.37328C15.8525 4.48883 15.9681 4.71994 15.9103 5.06661C15.8525 5.41328 15.7081 5.64439 15.477 5.75994L14.0903 6.62661C13.9748 6.74216 13.8592 6.79994 13.7436 6.79994ZM11.6636 4.71994C11.317 4.71994 11.057 4.5755 10.8836 4.28661C10.7103 3.99772 10.7392 3.67994 10.9703 3.33328L11.6636 1.94661C11.8948 1.7155 12.1548 1.59994 12.4436 1.59994C12.7325 1.59994 12.9636 1.74439 13.137 2.03328C13.3103 2.32216 13.2814 2.58216 13.0503 2.81328L12.357 4.19994C12.1259 4.54661 11.8948 4.71994 11.6636 4.71994Z" fill="#FD4C5C"/>
</svg>
