<svg width="64" height="64" viewBox="0 0 64 64" fill="none" xmlns="http://www.w3.org/2000/svg">
<g clip-path="url(#clip0_89_8)">
<path fill-rule="evenodd" clip-rule="evenodd" d="M59.7079 8.32592L44.8039 23.2839L53.8158 48.0739C54.2598 49.4939 53.9838 51.2539 53.4098 51.8279C51.7798 53.4599 50.6178 52.6839 49.9998 51.9999L35.5899 32.5319L19.6378 48.5399L22.5099 59.1999C21.3759 58.0639 14.7598 49.2039 14.6018 49.0419C14.4958 48.9379 5.79185 42.4499 4.85385 41.5059L15.0758 44.2659L31.3299 28.304L11.9998 13.9999C11.4458 13.5039 10.7159 12.0399 12.2079 10.5419C12.7839 9.96793 14.5239 9.79393 15.9399 10.2399L40.6219 19.184L55.7279 4.34991C56.7839 3.29391 58.8498 3.40194 59.7758 4.32794C60.6998 5.25394 60.7639 7.27192 59.7079 8.32592ZM62.4138 1.63995C59.9218 -0.860049 55.5419 -0.274088 53.0359 2.23791L40.2818 14.9619L16.6258 6.12195C14.3598 5.53595 12.0779 4.77794 9.26785 7.59594C7.83385 9.03194 4.85385 12.02 9.26785 16.442L25.4878 29.7219L14.9339 40.254L5.08585 37.7919C3.62585 37.4159 2.64188 37.71 1.89188 38.538C1.51388 39.01 -1.22813 41.0419 0.68387 42.9579L12.1338 51.866L21.0418 63.3159C22.4258 64.7039 23.7118 63.838 25.4698 62.168C26.5838 61.052 26.3438 60.4779 26.0078 58.8519L23.7838 49.072L34.2658 38.554L47.5258 54.778C51.9378 59.2 54.9199 56.21 56.3539 54.778C59.1659 51.958 58.4098 49.6739 57.8238 47.4039L49.0578 23.7079L61.7599 10.9619C64.2659 8.45191 64.9078 4.13795 62.4138 1.63995Z" fill="#00BB98"/>
</g>
<defs>
<clipPath id="clip0_89_8">
<rect width="64" height="64" fill="white"/>
</clipPath>
</defs>
</svg>
