<svg width="64" height="64" viewBox="0 0 64 64" fill="none" xmlns="http://www.w3.org/2000/svg">
<path d="M31.1059 24.7492L34.3929 23.6858C32.7977 20.9305 28.5923 18.997 26.0303 17.0634C26.0303 17.8852 26.6587 19.3837 26.6587 19.3837C26.6587 19.3837 20.8581 18.8036 18.9246 17.5468C18.9246 18.3686 21.9699 20.2537 21.9699 20.2537C21.9699 20.2537 16.3627 20.4471 14.5741 20.9305C14.7191 21.0755 16.411 22.429 16.411 22.429C16.411 22.429 12.1572 25.1359 11.6738 27.2145C13.4623 26.7311 15.2025 25.9093 16.991 25.7643C17.3294 27.0695 17.1361 28.5196 17.3294 29.6314C18.6346 28.3263 19.7463 26.5861 20.8581 25.1359C21.6799 26.1027 21.6799 27.4078 22.3083 28.3746C24.0968 27.2628 28.0122 22.9124 28.0122 22.9124L26.562 26.6828L31.1059 24.7492ZM35.408 13.8731C34.7796 14.2115 33.9578 14.5498 33.3294 15.0815C33.0877 13.148 33.5228 11.2145 33.3294 9.42595C32.2176 9.76432 31.1059 10.4411 30.3324 11.1178C29.3173 9.37762 29.0756 7.44408 28.2539 5.84892C27.9639 6.52565 26.9004 9.37762 26.9004 9.37762C26.9004 9.37762 21.0031 5.26886 18.4412 5.65556C20.6164 7.54076 22.7433 9.71599 25.2086 11.4078C24.8702 11.6012 24.2901 12.4229 24.0968 12.5679C26.562 13.6797 28.979 14.0664 31.3959 14.9849C30.7675 15.4683 29.8007 16.145 29.1723 16.6767C31.1542 18.2235 35.4563 21.8006 35.4563 21.8006C34.4412 18.9003 35.988 16.435 35.408 13.8731ZM49.3294 16.9184C49.3294 16.9184 46.6708 16.3383 46.3324 15.3716C48.6043 14.5498 52.133 13.9214 54.2116 14.7432C53.0998 14.1148 50.2478 12.3263 50.2478 12.3263C50.2478 12.3263 54.84 10.0544 55.4684 7.49242C52.0847 8.79756 44.7856 12.0846 44.7856 12.0846C44.7856 12.0846 44.8339 10.5377 44.6889 10.0544C42.417 11.0211 40.9669 13.9214 39.3717 15.7099C39.2267 15.2266 38.4049 14.7432 38.2599 14.2598C36.8098 16.0483 36.3264 19.722 35.988 21.9939C35.988 21.9939 37.4382 21.0272 40.5802 19.1903C43.7705 17.4018 49.3294 16.9184 49.3294 16.9184ZM59.2388 24.2175C57.4503 22.1389 54.7433 21.4622 52.4714 20.3504C52.9548 19.5287 53.7765 18.9003 54.4049 18.0785C52.3264 18.5619 49.9095 19.1903 47.7826 19.5287C47.9276 19.0453 47.7826 18.2235 47.9276 17.9335C46.8158 18.0785 45.8491 18.9003 44.8823 19.3837C44.7373 19.0453 44.3989 18.7553 44.3989 18.2719C42.6104 19.722 40.1935 21.6556 37.9699 22.284L39.6617 22.6707C39.6617 22.6707 42.8037 24.0241 44.7373 25.4743C45.704 23.8308 45.0756 23.2507 45.414 23.1541C45.704 23.0574 48.9911 25.3293 50.7312 26.7794C50.7312 25.6676 50.3929 24.7009 50.1028 23.7341C52.9548 23.5891 56.5318 23.1057 59.2388 24.2175ZM43.7705 31.9516C44.7373 31.9516 45.559 31.9516 46.5258 31.8066C45.414 30.3565 43.6255 29.8731 42.1753 28.9063C43.1421 29.2447 44.2539 29.0513 45.2207 28.7613C44.1089 27.3112 42.4654 26.9728 40.8702 26.1994C41.692 26.3444 42.3204 26.0544 43.1421 25.861C41.692 24.0725 38.3083 24.2658 36.3747 22.8157C36.3747 22.8157 35.8914 27.6495 35.553 29.7281C36.0364 29.0997 36.6648 28.4229 37.1481 27.9396C37.2932 29.3897 37.4865 30.8399 37.4865 32.29C38.3083 31.8066 38.9367 30.9849 39.5651 30.3565C39.7101 32.29 38.7433 34.8519 39.4201 36.7855C40.3868 36.3021 41.2086 35.9637 41.982 35.4803C43.0938 37.2689 43.9155 40.1692 44.7373 42.2477C44.2539 39.8308 44.7373 36.9305 45.0756 34.6586C45.704 34.6586 46.6708 34.5136 47.3475 34.6586C46.5258 33.4018 45.0756 32.725 43.7705 31.9516ZM32.846 50.1752C31.3959 51.7704 28.3989 55.6858 28.3989 55.6858L28.1572 60.4229C28.1572 60.4229 32.991 55.9758 34.5862 54.0423C32.991 54.6707 30.1874 55.8308 30.1874 55.8308C30.1874 55.8308 32.3626 52.4471 32.846 50.1752ZM18.4895 58.1994C16.701 57.571 14.9608 56.6042 13.3173 55.6374C15.7343 57.2326 18.1512 58.6828 19.4563 61.293L20.4231 59.2145C18.9729 55.8308 14.4775 49.4018 14.4775 49.4018C14.4775 49.4018 18.0062 55.2991 18.4895 58.1994Z" fill="#00BB98" stroke="#00BB98" stroke-width="0.0625"/>
<path d="M19.408 59.6978C20.3747 53.0755 21.3415 47.2749 24.2418 40.9909C25.6919 37.9456 26.6587 35.0453 28.5923 32.145C30.8642 28.7613 35.988 22.4773 35.988 22.4773C35.988 22.4773 29.414 37.8006 29.0756 46.5015C28.9306 50.0302 30.3808 54.3806 29.8974 57.9577C29.414 61.3413 23.4684 60.3746 20.2297 61.1963L19.408 59.6978Z" fill="#00BB98" stroke="#00BB98" stroke-width="0.0625"/>
</svg>
