<svg width="52" height="52" viewBox="0 0 52 52" fill="none" xmlns="http://www.w3.org/2000/svg">
<path d="M22.5395 29.2933L24.0992 28.6L24.7924 30.16L23.2327 30.8533L22.5395 29.2933ZM23.9259 32.24L25.4856 31.72L26.0055 32.9333L24.4458 33.6266L23.9259 32.24ZM21.3264 26.3466L22.8861 25.6533L23.406 27.2133L22.0196 27.9066L21.3264 26.3466ZM33.2841 13.8666V15.4266H37.27L39.8695 21.4933L41.4292 20.8L38.3098 13.8666H33.2841ZM6.59585 12.1333C8.09779 12.1333 9.39754 11.5844 10.4951 10.4866C11.5927 9.38886 12.1415 8.05997 12.1415 6.49997C12.1415 4.93997 11.5927 3.61108 10.4951 2.5133C9.39754 1.41552 8.04002 0.866635 6.42255 0.866635H5.72935V2.2533L5.90265 2.42663C6.24925 2.88886 6.45144 3.43775 6.5092 4.0733C6.56697 4.70886 6.3359 5.25775 5.816 5.71997C5.2961 6.18219 4.71844 6.44219 4.083 6.49997C3.44757 6.55775 2.89879 6.35552 2.43665 5.8933L2.26335 5.71997H0.876953V6.4133C0.876953 8.03108 1.42574 9.38886 2.5233 10.4866C3.62087 11.5844 4.97839 12.1333 6.59585 12.1333ZM3.99635 8.14663C5.15169 8.14663 6.13372 7.74219 6.94245 6.9333C7.75119 6.12441 8.15555 5.14219 8.15555 3.98663C8.15555 3.52441 8.04002 3.06219 7.80895 2.59997C8.61769 2.94663 9.282 3.46663 9.8019 4.15997C10.3218 4.8533 10.5818 5.69108 10.5818 6.6733C10.5818 7.65552 10.1774 8.55108 9.36865 9.35997C8.55992 10.1689 7.66454 10.5733 6.6825 10.5733C5.70047 10.5733 4.86285 10.3133 4.16965 9.7933C3.47645 9.2733 2.95655 8.60886 2.60995 7.79997C3.07209 8.03108 3.53422 8.14663 3.99635 8.14663ZM48.7078 17.16V16.9866C48.7078 16.4089 48.5922 15.8311 48.3612 15.2533C49.1699 15.0222 49.8342 14.5311 50.3541 13.78C50.874 13.0289 51.134 12.1911 51.134 11.2666C51.134 10.3422 50.7874 9.47552 50.0942 8.66663C50.3252 8.20441 50.4408 7.74219 50.4408 7.27997C50.4408 6.12441 50.0364 5.17108 49.2277 4.41997C48.4189 3.66886 47.4369 3.2933 46.2816 3.2933C45.8194 3.2933 45.3573 3.35108 44.8952 3.46663C44.5486 2.65775 43.9709 2.02219 43.1622 1.55997C42.3534 1.09775 41.458 0.866635 40.476 0.866635C39.494 0.866635 38.5408 1.2133 37.6166 1.90663C36.8078 1.2133 35.9413 0.866635 35.0171 0.866635C34.0928 0.866635 33.2841 1.09775 32.5909 1.55997C31.8977 2.02219 31.4355 2.65775 31.2045 3.46663C30.7423 3.35108 30.338 3.2933 29.9914 3.2933C28.9516 3.2933 28.0273 3.66886 27.2186 4.41997C26.4098 5.17108 26.0055 6.12441 26.0055 7.27997C26.0055 7.74219 26.0632 8.20441 26.1788 8.66663C25.7166 9.24441 25.4278 9.87997 25.3123 10.5733H11.6216L0.876953 34.84V36.5733H28.9516C28.605 37.3822 28.4317 38.1911 28.4317 39C28.4317 40.2711 28.836 41.4266 29.6448 42.4666L22.1929 49.7466L23.406 50.96L30.6846 43.5066C31.1467 43.8533 31.6088 44.2 32.071 44.5466L28.605 49.92L29.9914 50.7866L33.6307 45.0666C34.3239 45.2977 35.0171 45.4133 35.7103 45.4133V51.1333H37.4433L37.27 45.4133C38.1942 45.4133 39.0607 45.2977 39.8695 45.0666L44.0287 50.7866L45.4151 49.92L41.4292 44.5466C41.8913 44.3155 42.2957 44.0266 42.6423 43.68L49.7476 50.96L50.9607 49.7466L43.6821 42.4666C44.3753 41.5422 44.7219 40.3866 44.7219 39C44.7219 38.3066 44.5486 37.4977 44.202 36.5733H51.134V34.84L45.0685 21.1466C46.1083 21.0311 46.9748 20.5977 47.668 19.8466C48.3612 19.0955 48.7078 18.2 48.7078 17.16ZM29.2982 9.0133V7.27997C28.7205 7.27997 28.2006 7.39552 27.7385 7.62663L27.5652 7.27997C27.5652 6.58663 27.8251 6.00886 28.345 5.54663C28.8649 5.08441 29.4426 4.8533 30.078 4.8533C30.7134 4.8533 31.2622 5.08441 31.7244 5.54663C32.1865 6.00886 32.4176 6.58663 32.4176 7.27997H34.1506C34.1506 6.00886 33.6307 4.96886 32.5909 4.15997C32.7064 3.69775 32.9952 3.2933 33.4574 2.94663C33.9195 2.59997 34.4394 2.42663 35.0171 2.42663C35.8258 2.42663 36.4612 2.7733 36.9234 3.46663L37.4433 4.3333L38.1365 3.46663C38.8297 2.7733 39.6384 2.42663 40.5627 2.42663C41.4869 2.42663 42.2668 2.74441 42.9022 3.37997C43.5376 4.01552 43.8554 4.79552 43.8554 5.71997C43.8554 6.64441 43.5376 7.42441 42.9022 8.05997C42.2668 8.69552 41.4869 9.0133 40.5627 9.0133V10.5733C41.9491 10.5733 43.1333 10.0822 44.1153 9.09997C45.0973 8.11775 45.5884 6.99108 45.5884 5.71997L45.4151 5.02663C45.7617 4.91108 46.0505 4.8533 46.2816 4.8533C46.9748 4.8533 47.5524 5.08441 48.0146 5.54663C48.4767 6.00886 48.7078 6.58663 48.7078 7.27997C48.7078 7.74219 48.5922 8.14663 48.3612 8.4933L48.1879 9.0133L48.7078 9.5333C49.2854 9.99552 49.5743 10.5733 49.5743 11.2666C49.5743 11.96 49.3432 12.5666 48.8811 13.0866C48.4189 13.6066 47.8413 13.8666 47.1481 13.8666C46.8015 13.6355 46.4549 13.4044 46.1083 13.1733L45.5884 14.7333C46.0505 14.9644 46.426 15.2822 46.7148 15.6866C47.0036 16.0911 47.1481 16.5822 47.1481 17.16C47.1481 17.7377 46.8881 18.2577 46.3682 18.72C45.8483 19.1822 45.2418 19.4133 44.5486 19.4133H44.3753L40.3894 10.5733H27.0453C27.1608 10.1111 27.4207 9.73552 27.8251 9.44663C28.2295 9.15775 28.7205 9.0133 29.2982 9.0133ZM19.0735 32.9333C17.1094 30.6222 15.6075 28.0222 14.5677 25.1333C13.5279 22.2444 13.008 19.2977 13.008 16.2933V15.2533L21.4997 35.0133H20.6332L19.0735 32.9333ZM18.5536 35.0133H5.72935L6.59585 33.9733C9.25312 30.7377 11.1017 27.04 12.1415 22.88C13.1813 27.04 15.0876 30.7377 17.8604 33.9733L18.5536 35.0133ZM11.4483 15.2533V16.2933C11.4483 19.2977 10.9284 22.2444 9.88855 25.1333C8.84875 28.0222 7.34682 30.6222 5.38275 32.9333L3.64975 35.0133H2.60995L11.4483 15.2533ZM29.9914 39C29.9914 38.4222 30.1647 37.7866 30.5113 37.0933C30.7423 36.6311 31.1467 36.0533 31.7244 35.36C32.4176 34.32 32.8797 33.5111 33.1108 32.9333C33.804 33.28 34.1506 33.6844 34.1506 34.1466V35.0133H35.7103V34.1466C35.7103 33.5689 35.537 33.0489 35.1904 32.5866C35.768 31.4311 36.8656 30.4489 38.4831 29.64C38.7141 30.2177 39.3496 31.3155 40.3894 32.9333C41.1981 34.2044 41.7758 35.1866 42.1224 35.88C42.7 37.0355 42.9889 38.0755 42.9889 39C42.9889 41.08 42.0646 42.4666 40.2161 43.16C40.4471 42.6977 40.5627 42.1777 40.5627 41.6C40.5627 40.7911 40.3316 40.04 39.8695 39.3466L36.5768 35.1866L33.2841 39.3466C32.8219 40.04 32.5331 40.7911 32.4176 41.6C32.5331 42.0622 32.6486 42.5244 32.7642 42.9866C31.9554 42.5244 31.2911 41.9466 30.7712 41.2533C30.2513 40.56 29.9914 39.8089 29.9914 39ZM36.5768 43.8533C36.4612 43.8533 36.3457 43.8533 36.2302 43.8533C35.6525 43.8533 35.1615 43.6511 34.7571 43.2466C34.3527 42.8422 34.1506 42.3511 34.1506 41.7733C34.1506 41.1955 34.3239 40.7333 34.6705 40.3866L36.5768 37.7866L38.4831 40.3866C38.8297 40.7333 39.003 41.1955 39.003 41.7733C39.003 42.3511 38.8008 42.8422 38.3964 43.2466C37.992 43.6511 37.501 43.8533 36.9234 43.8533H36.5768ZM43.5088 35.0133C43.0466 34.2044 42.4112 33.2222 41.6025 32.0666C40.4471 30.2177 39.8695 29.0044 39.8695 28.4266V27.3866L38.6564 27.7333C38.0787 27.8489 37.4433 28.1377 36.7501 28.6C35.4792 29.4089 34.5549 30.3911 33.9773 31.5466C33.5151 31.3155 33.1108 31.1422 32.7642 31.0266L31.7244 30.68V31.72C31.7244 32.0666 31.6088 32.4711 31.3778 32.9333L29.9914 35.0133H23.2327L13.3546 12.1333H39.3496L49.401 35.0133H43.5088ZM29.9914 13.8666H31.7244V15.4266H29.9914V13.8666ZM26.872 13.8666H28.4317V15.4266H26.872V13.8666Z" fill="#FD4C5C"/>
</svg>
