<svg width="52" height="50" viewBox="0 0 52 50" fill="none" xmlns="http://www.w3.org/2000/svg">
<path d="M50.9022 25.6533H48.3022C48.0711 25.6533 47.84 25.7688 47.6089 25.9999L46.0489 28.0799C45.8178 28.311 45.7311 28.5421 45.7889 28.7733C45.8467 29.0044 45.9622 29.2066 46.1356 29.3799C46.3089 29.5533 46.54 29.6399 46.8289 29.6399C47.1178 29.6399 47.3778 29.5244 47.6089 29.2933L48.8222 27.7333H50.9022C51.2489 27.7333 51.5089 27.6177 51.6822 27.3866C51.8556 27.1555 51.9422 26.8955 51.9422 26.6066C51.9422 26.3177 51.8556 26.0866 51.6822 25.9133C51.5089 25.7399 51.2489 25.6533 50.9022 25.6533ZM42.5822 33.9733C42.3511 33.8577 42.12 33.7999 41.8889 33.7999C41.6578 33.7999 41.4267 33.9155 41.1956 34.1466L39.8089 36.0533H35.3022L31.8356 23.7466C32.2978 23.631 32.7022 23.3421 33.0489 22.8799C33.3956 22.4177 33.5689 21.8399 33.5689 21.1466C33.5689 20.4533 33.3089 19.8466 32.7889 19.3266C32.2689 18.8066 31.6044 18.5466 30.7956 18.5466H30.2756L29.5822 15.9466C29.4667 15.7155 29.2933 15.5421 29.0622 15.4266C28.8311 15.311 28.5711 15.2821 28.2822 15.3399C27.9933 15.3977 27.7911 15.5421 27.6756 15.7733C27.56 16.0044 27.5022 16.2933 27.5022 16.6399L28.1956 18.5466H27.6756L23.8622 14.9066L24.0356 14.7333C25.1911 13.9244 25.8844 12.8555 26.1156 11.5266C26.3467 10.1977 26.0578 8.98437 25.2489 7.88659C24.44 6.78881 23.3711 6.12437 22.0422 5.89326C20.7133 5.66214 19.5 5.95103 18.4022 6.75992C17.3044 7.56881 16.64 8.60881 16.4089 9.87992C16.2933 10.6888 16.3511 11.4688 16.5822 12.2199C16.8133 12.971 17.16 13.6355 17.6222 14.2133L16.9289 14.5599C16.3511 13.5199 15.5422 12.9133 14.5022 12.7399C13.4622 12.5666 12.5378 12.7399 11.7289 13.2599C10.92 13.7799 10.4578 14.5599 10.3422 15.5999C10.2267 16.1777 10.2844 16.7555 10.5156 17.3333L10.3422 17.5066C10.1111 17.6221 9.93778 17.7955 9.82222 18.0266L8.43556 26.3466C8.32 27.0399 8.46444 27.7044 8.86889 28.3399C9.27333 28.9755 9.82222 29.351 10.5156 29.4666L12.7689 29.8133H13.1156L12.7689 34.6666L10.3422 39.6933C10.1111 40.1555 9.99556 40.6466 9.99556 41.1666C9.99556 41.6866 10.1111 42.1777 10.3422 42.6399H9.12889C8.89778 42.6399 8.72444 42.6977 8.60889 42.8133L0.462222 48.0133C0.231111 48.2444 0.0866667 48.4755 0.0288889 48.7066C-0.0288889 48.9377 0.0288889 49.1977 0.202222 49.4866C0.375556 49.7755 0.606667 49.9199 0.895556 49.9199C1.18444 49.9199 1.38667 49.8621 1.50222 49.7466L9.47556 44.7199H24.3822C24.7289 44.7199 25.0178 44.6044 25.2489 44.3733L31.8356 37.9599H40.3289C40.6756 37.9599 40.9067 37.8444 41.0222 37.6133L42.7556 35.3599C42.9867 35.1288 43.0733 34.8977 43.0156 34.6666C42.9578 34.4355 42.8133 34.2044 42.5822 33.9733ZM17.2756 30.3333C17.16 30.2177 17.0444 30.1599 16.9289 30.1599C16.5822 30.1599 16.2644 30.0733 15.9756 29.8999C15.6867 29.7266 15.4844 29.4955 15.3689 29.2066C15.2533 28.9177 15.1956 28.5999 15.1956 28.2533L15.3689 27.7333C17.7956 27.6177 19.9333 26.9821 21.7822 25.8266L21.4356 27.2133C21.32 27.6755 21.4933 28.0221 21.9556 28.2533L25.5956 29.9866L29.7556 35.3599C30.1022 35.7066 30.2467 36.0821 30.1889 36.4866C30.1311 36.891 29.9289 37.2088 29.5822 37.4399C29.2356 37.671 28.86 37.7577 28.4556 37.6999C28.0511 37.6421 27.7333 37.4977 27.5022 37.2666L23.8622 32.5866C23.7467 32.471 23.6311 32.3555 23.5156 32.2399L20.2222 30.6799L17.2756 30.3333ZM31.4889 34.1466L27.1556 28.5999L26.8089 28.4266L23.5156 26.8666L24.0356 24.0933H29.7556L33.2222 36.0533H32.1822C32.1822 35.2444 31.9511 34.6088 31.4889 34.1466ZM27.1556 20.6266H29.4089H30.7956C31.0267 20.6266 31.2 20.6844 31.3156 20.7999C31.4311 20.9155 31.4889 21.0599 31.4889 21.2333C31.4889 21.4066 31.4311 21.5799 31.3156 21.7533C31.2 21.9266 31.0267 22.0133 30.7956 22.0133H23.5156L21.6089 20.2799C21.3778 20.0488 21.1178 19.9333 20.8289 19.9333C20.54 19.9333 20.3089 20.0488 20.1356 20.2799C19.9622 20.511 19.8756 20.771 19.8756 21.0599C19.8756 21.3488 19.9911 21.551 20.2222 21.6666L21.7822 23.0533C20.3956 24.5555 18.3733 25.4221 15.7156 25.6533L16.9289 18.0266C17.0444 17.3333 17.3911 16.7555 17.9689 16.2933C18.5467 15.831 19.3556 15.5999 20.3956 15.5999H20.5689C21.2622 15.5999 21.84 15.831 22.3022 16.2933L26.4622 20.2799C26.6933 20.511 26.9244 20.6266 27.1556 20.6266ZM18.3156 10.2266C18.4311 9.53326 18.7778 8.95548 19.3556 8.49326C19.9333 8.03103 20.5689 7.79992 21.2622 7.79992H21.7822C22.4756 8.03103 23.0533 8.46437 23.5156 9.09992C23.9778 9.73548 24.1511 10.4288 24.0356 11.1799C23.92 11.931 23.6022 12.5377 23.0822 12.9999C22.5622 13.4621 21.9556 13.6933 21.2622 13.6933L20.7422 13.5199C19.9333 13.4044 19.2978 13.0288 18.8356 12.3933C18.3733 11.7577 18.2 11.0355 18.3156 10.2266ZM12.2489 15.9466C12.3644 15.4844 12.5667 15.1666 12.8556 14.9933C13.1444 14.8199 13.4622 14.7333 13.8089 14.7333H13.9822C14.4444 14.7333 14.7911 14.9066 15.0222 15.2533C15.2533 15.5999 15.3111 16.0044 15.1956 16.4666C15.08 16.9288 14.8778 17.2755 14.5889 17.5066C14.3 17.7377 13.9533 17.7955 13.5489 17.6799C13.1444 17.5644 12.8267 17.3333 12.5956 16.9866C12.3644 16.6399 12.2489 16.2933 12.2489 15.9466ZM12.5956 27.7333L10.8622 27.3866C10.7467 27.3866 10.6311 27.2999 10.5156 27.1266C10.4 26.9533 10.4 26.8088 10.5156 26.6933L11.7289 19.4133L14.5022 19.9333L13.2889 27.2133C13.1733 27.5599 12.9422 27.7333 12.5956 27.7333ZM12.7689 42.6399C12.1911 42.2933 11.9022 41.831 11.9022 41.2533C11.9022 41.0221 11.96 40.791 12.0756 40.5599L14.6756 35.3599L14.8489 34.8399L15.0222 31.7199C15.3689 31.951 16.0622 32.1244 17.1022 32.2399L17.9689 32.4133L17.7956 35.7066L14.8489 41.9466C14.6178 42.4088 14.2133 42.6399 13.6356 42.6399H12.7689ZM24.0356 42.6399H16.7556L19.7022 36.3999L20.0489 32.9333L22.4756 33.9733L25.9422 38.4799C26.2889 38.9421 26.7511 39.2888 27.3289 39.5199L24.0356 42.6399ZM39.4622 13.1733H44.6622C45.7022 13.1733 46.5978 12.7977 47.3489 12.0466C48.1 11.2955 48.4756 10.3999 48.4756 9.35992C48.4756 8.31992 48.1 7.39548 47.3489 6.58659C46.5978 5.7777 45.7022 5.37326 44.6622 5.37326C44.0844 5.37326 43.5644 5.48881 43.1022 5.71992C42.1778 4.56437 40.9933 3.98659 39.5489 3.98659C38.1044 3.98659 36.9489 4.41992 36.0822 5.28659C35.2156 6.15326 34.7822 7.25103 34.7822 8.57992C34.7822 9.90881 35.2156 11.0066 36.0822 11.8733C36.9489 12.7399 38.0756 13.1733 39.4622 13.1733ZM39.4622 5.89326C39.9244 5.89326 40.3867 6.0377 40.8489 6.32659C41.3111 6.61548 41.6289 6.96214 41.8022 7.36659C41.9756 7.77103 42.2067 8.03103 42.4956 8.14659C42.7844 8.26214 43.1022 8.17548 43.4489 7.88659C43.7956 7.5977 44.2 7.45326 44.6622 7.45326C45.1244 7.45326 45.5289 7.65548 45.8756 8.05992C46.2222 8.46437 46.3956 8.8977 46.3956 9.35992C46.3956 9.82214 46.2222 10.2555 45.8756 10.6599C45.5289 11.0644 45.1244 11.2666 44.6622 11.2666H39.4622C38.6533 11.2666 37.9889 11.0066 37.4689 10.4866C36.9489 9.96659 36.6889 9.33103 36.6889 8.57992C36.6889 7.82881 36.9489 7.19326 37.4689 6.67326C37.9889 6.15326 38.6533 5.89326 39.4622 5.89326ZM6.00889 10.7466C7.04889 10.7466 7.94444 10.371 8.69556 9.61992C9.44667 8.86881 9.82222 7.97326 9.82222 6.93326C9.82222 5.89326 9.44667 5.02659 8.69556 4.33326C7.94444 3.63992 7.07778 3.29326 6.09556 3.29326C5.11333 3.29326 4.24667 3.63992 3.49556 4.33326C2.74444 5.02659 2.36889 5.89326 2.36889 6.93326C2.36889 7.97326 2.74444 8.86881 3.49556 9.61992C4.24667 10.371 5.08444 10.7466 6.00889 10.7466ZM4.96889 5.71992C5.2 5.48881 5.54667 5.37326 6.00889 5.37326C6.47111 5.37326 6.87556 5.5177 7.22222 5.80659C7.56889 6.09548 7.74222 6.47103 7.74222 6.93326C7.74222 7.39548 7.56889 7.79992 7.22222 8.14659C6.87556 8.49326 6.47111 8.66659 6.00889 8.66659C5.54667 8.66659 5.17111 8.49326 4.88222 8.14659C4.59333 7.79992 4.44889 7.39548 4.44889 6.93326C4.44889 6.47103 4.62222 6.06659 4.96889 5.71992ZM0.462222 4.85326L0.982222 5.19992C1.09778 5.31548 1.3 5.37326 1.58889 5.37326C1.87778 5.37326 2.10889 5.22881 2.28222 4.93992C2.45556 4.65103 2.51333 4.36214 2.45556 4.07326C2.39778 3.78437 2.25333 3.58214 2.02222 3.46659L1.50222 3.11992C1.27111 3.00437 1.01111 2.97548 0.722222 3.03326C0.433333 3.09103 0.231111 3.26437 0.115556 3.55326C0 3.84214 -0.0288889 4.10214 0.0288889 4.33326C0.0866667 4.56437 0.231111 4.7377 0.462222 4.85326ZM11.7289 9.01326L11.2089 8.83992C10.9778 8.72437 10.7178 8.69548 10.4289 8.75326C10.14 8.81103 9.93778 8.95548 9.82222 9.18659C9.70667 9.4177 9.67778 9.6777 9.73556 9.96659C9.79333 10.2555 9.93778 10.4577 10.1689 10.5733L10.6889 10.9199C10.8044 10.9199 11.0067 10.9199 11.2956 10.9199C11.5844 10.9199 11.8156 10.7755 11.9889 10.4866C12.1622 10.1977 12.22 9.9377 12.1622 9.70659C12.1044 9.47548 11.96 9.24437 11.7289 9.01326ZM0.982222 10.9199C1.09778 10.9199 1.27111 10.9199 1.50222 10.9199L2.02222 10.5733C2.25333 10.4577 2.39778 10.2555 2.45556 9.96659C2.51333 9.6777 2.45556 9.4177 2.28222 9.18659C2.10889 8.95548 1.90667 8.81103 1.67556 8.75326C1.44444 8.69548 1.21333 8.72437 0.982222 8.83992L0.462222 9.01326C0.231111 9.24437 0.0866667 9.47548 0.0288889 9.70659C-0.0288889 9.9377 0 10.1977 0.115556 10.4866C0.231111 10.7755 0.52 10.9199 0.982222 10.9199ZM10.6889 5.37326C10.92 5.37326 11.0933 5.31548 11.2089 5.19992L11.7289 4.85326C11.96 4.7377 12.1044 4.56437 12.1622 4.33326C12.22 4.10214 12.1911 3.84214 12.0756 3.55326C11.96 3.26437 11.7578 3.09103 11.4689 3.03326C11.18 2.97548 10.92 3.00437 10.6889 3.11992L10.1689 3.46659C9.93778 3.58214 9.79333 3.78437 9.73556 4.07326C9.67778 4.36214 9.73556 4.65103 9.90889 4.93992C10.0822 5.22881 10.3422 5.37326 10.6889 5.37326ZM6.00889 2.59992C6.35556 2.59992 6.61556 2.51326 6.78889 2.33992C6.96222 2.16659 7.04889 1.96437 7.04889 1.73326V1.03992C7.04889 0.808811 6.96222 0.5777 6.78889 0.346589C6.61556 0.115478 6.38444 -7.77245e-05 6.09556 -7.77245e-05C5.80667 -7.77245e-05 5.57556 0.115478 5.40222 0.346589C5.22889 0.5777 5.14222 0.808811 5.14222 1.03992V1.73326C5.14222 1.96437 5.22889 2.16659 5.40222 2.33992C5.57556 2.51326 5.77778 2.59992 6.00889 2.59992ZM5.14222 12.4799V12.9999C5.14222 13.231 5.22889 13.4621 5.40222 13.6933C5.57556 13.9244 5.80667 14.0399 6.09556 14.0399C6.38444 14.0399 6.61556 13.9244 6.78889 13.6933C6.96222 13.4621 7.04889 13.231 7.04889 12.9999V12.4799C7.04889 12.1333 6.96222 11.8733 6.78889 11.6999C6.61556 11.5266 6.38444 11.4399 6.09556 11.4399C5.80667 11.4399 5.57556 11.5266 5.40222 11.6999C5.22889 11.8733 5.14222 12.1333 5.14222 12.4799ZM45.1822 31.1999C45.0667 30.7377 44.7778 30.5355 44.3156 30.5933C43.8533 30.651 43.5356 30.911 43.3622 31.3733C43.1889 31.8355 43.3044 32.211 43.7089 32.4999C44.1133 32.7888 44.46 32.8177 44.7489 32.5866C45.0378 32.3555 45.2111 32.1244 45.2689 31.8933C45.3267 31.6621 45.2978 31.431 45.1822 31.1999Z" fill="#FD4C5C"/>
</svg>
